<?xml version="1.0" encoding="UTF-8"?>
<svg xmlns="http://www.w3.org/2000/svg" xmlns:xlink="http://www.w3.org/1999/xlink" stroke-dasharray="none" shape-rendering="auto" font-family="'Dialog'" width="1056" text-rendering="auto" fill-opacity="1" contentScriptType="text/ecmascript" color-interpolation="auto" color-rendering="auto" preserveAspectRatio="xMidYMid meet" font-size="12" viewBox="0 0 1056 1225" fill="black" stroke="black" image-rendering="auto" stroke-miterlimit="10" zoomAndPan="magnify" version="1.0" stroke-linecap="square" stroke-linejoin="miter" contentStyleType="text/css" font-style="normal" height="1225" stroke-width="1" stroke-dashoffset="0" font-weight="normal" stroke-opacity="1">
  <!--Generated by the Batik Graphics2D SVG Generator-->
  <defs id="genericDefs" />
  <g>
    <defs id="defs1">
      <clipPath clipPathUnits="userSpaceOnUse" id="clipPath1">
        <path d="M125 9 L197 9 L197 41 L125 41 L125 9 Z" />
      </clipPath>
      <clipPath clipPathUnits="userSpaceOnUse" id="clipPath2">
        <path d="M125 9 L202 9 L202 41 L125 41 L125 9 Z" />
      </clipPath>
      <clipPath clipPathUnits="userSpaceOnUse" id="clipPath3">
        <path d="M155 39 L167 39 L167 1216 L155 1216 L155 39 Z" />
      </clipPath>
      <clipPath clipPathUnits="userSpaceOnUse" id="clipPath4">
        <path d="M224 9 L360 9 L360 97 L224 97 L224 9 Z" />
      </clipPath>
      <clipPath clipPathUnits="userSpaceOnUse" id="clipPath5">
        <path d="M224 9 L364 9 L364 97 L224 97 L224 9 Z" />
      </clipPath>
      <clipPath clipPathUnits="userSpaceOnUse" id="clipPath6">
        <path d="M224 9 L363 9 L363 97 L224 97 L224 9 Z" />
      </clipPath>
      <clipPath clipPathUnits="userSpaceOnUse" id="clipPath7">
        <path d="M224 9 L365 9 L365 97 L224 97 L224 9 Z" />
      </clipPath>
      <clipPath clipPathUnits="userSpaceOnUse" id="clipPath8">
        <path d="M286 95 L298 95 L298 1216 L286 1216 L286 95 Z" />
      </clipPath>
      <clipPath clipPathUnits="userSpaceOnUse" id="clipPath9">
        <path d="M281 171 L303 171 L303 213 L281 213 L281 171 Z" />
      </clipPath>
      <clipPath clipPathUnits="userSpaceOnUse" id="clipPath10">
        <path d="M302 171 L365 171 L365 195 L302 195 L302 171 Z" />
      </clipPath>
      <clipPath clipPathUnits="userSpaceOnUse" id="clipPath11">
        <path d="M372 9 L495 9 L495 97 L372 97 L372 9 Z" />
      </clipPath>
      <clipPath clipPathUnits="userSpaceOnUse" id="clipPath12">
        <path d="M372 9 L500 9 L500 97 L372 97 L372 9 Z" />
      </clipPath>
      <clipPath clipPathUnits="userSpaceOnUse" id="clipPath13">
        <path d="M372 9 L498 9 L498 97 L372 97 L372 9 Z" />
      </clipPath>
      <clipPath clipPathUnits="userSpaceOnUse" id="clipPath14">
        <path d="M372 9 L499 9 L499 97 L372 97 L372 9 Z" />
      </clipPath>
      <clipPath clipPathUnits="userSpaceOnUse" id="clipPath15">
        <path d="M427 95 L439 95 L439 1216 L427 1216 L427 95 Z" />
      </clipPath>
      <clipPath clipPathUnits="userSpaceOnUse" id="clipPath16">
        <path d="M422 245 L444 245 L444 287 L422 287 L422 245 Z" />
      </clipPath>
      <clipPath clipPathUnits="userSpaceOnUse" id="clipPath17">
        <path d="M443 245 L506 245 L506 269 L443 269 L443 245 Z" />
      </clipPath>
      <clipPath clipPathUnits="userSpaceOnUse" id="clipPath18">
        <path d="M422 975 L444 975 L444 1017 L422 1017 L422 975 Z" />
      </clipPath>
      <clipPath clipPathUnits="userSpaceOnUse" id="clipPath19">
        <path d="M443 975 L506 975 L506 999 L443 999 L443 975 Z" />
      </clipPath>
      <clipPath clipPathUnits="userSpaceOnUse" id="clipPath20">
        <path d="M422 760 L444 760 L444 802 L422 802 L422 760 Z" />
      </clipPath>
      <clipPath clipPathUnits="userSpaceOnUse" id="clipPath21">
        <path d="M443 760 L497 760 L497 787 L443 787 L443 760 Z" />
      </clipPath>
      <clipPath clipPathUnits="userSpaceOnUse" id="clipPath22">
        <path d="M422 1020 L444 1020 L444 1062 L422 1062 L422 1020 Z" />
      </clipPath>
      <clipPath clipPathUnits="userSpaceOnUse" id="clipPath23">
        <path d="M443 1020 L497 1020 L497 1047 L443 1047 L443 1020 Z" />
      </clipPath>
      <clipPath clipPathUnits="userSpaceOnUse" id="clipPath24">
        <path d="M509 9 L674 9 L674 95 L509 95 L509 9 Z" />
      </clipPath>
      <clipPath clipPathUnits="userSpaceOnUse" id="clipPath25">
        <path d="M509 9 L677 9 L677 95 L509 95 L509 9 Z" />
      </clipPath>
      <clipPath clipPathUnits="userSpaceOnUse" id="clipPath26">
        <path d="M509 9 L678 9 L678 95 L509 95 L509 9 Z" />
      </clipPath>
      <clipPath clipPathUnits="userSpaceOnUse" id="clipPath27">
        <path d="M585 93 L597 93 L597 1216 L585 1216 L585 93 Z" />
      </clipPath>
      <clipPath clipPathUnits="userSpaceOnUse" id="clipPath28">
        <path d="M580 305 L602 305 L602 347 L580 347 L580 305 Z" />
      </clipPath>
      <clipPath clipPathUnits="userSpaceOnUse" id="clipPath29">
        <path d="M601 305 L664 305 L664 329 L601 329 L601 305 Z" />
      </clipPath>
      <clipPath clipPathUnits="userSpaceOnUse" id="clipPath30">
        <path d="M580 425 L602 425 L602 467 L580 467 L580 425 Z" />
      </clipPath>
      <clipPath clipPathUnits="userSpaceOnUse" id="clipPath31">
        <path d="M601 425 L664 425 L664 449 L601 449 L601 425 Z" />
      </clipPath>
      <clipPath clipPathUnits="userSpaceOnUse" id="clipPath32">
        <path d="M580 545 L602 545 L602 587 L580 587 L580 545 Z" />
      </clipPath>
      <clipPath clipPathUnits="userSpaceOnUse" id="clipPath33">
        <path d="M601 545 L664 545 L664 569 L601 569 L601 545 Z" />
      </clipPath>
      <clipPath clipPathUnits="userSpaceOnUse" id="clipPath34">
        <path d="M580 354 L602 354 L602 396 L580 396 L580 354 Z" />
      </clipPath>
      <clipPath clipPathUnits="userSpaceOnUse" id="clipPath35">
        <path d="M601 354 L650 354 L650 378 L601 378 L601 354 Z" />
      </clipPath>
      <clipPath clipPathUnits="userSpaceOnUse" id="clipPath36">
        <path d="M580 477 L602 477 L602 519 L580 519 L580 477 Z" />
      </clipPath>
      <clipPath clipPathUnits="userSpaceOnUse" id="clipPath37">
        <path d="M601 477 L650 477 L650 501 L601 501 L601 477 Z" />
      </clipPath>
      <clipPath clipPathUnits="userSpaceOnUse" id="clipPath38">
        <path d="M580 595 L602 595 L602 637 L580 637 L580 595 Z" />
      </clipPath>
      <clipPath clipPathUnits="userSpaceOnUse" id="clipPath39">
        <path d="M601 595 L650 595 L650 619 L601 619 L601 595 Z" />
      </clipPath>
      <clipPath clipPathUnits="userSpaceOnUse" id="clipPath40">
        <path d="M580 665 L602 665 L602 707 L580 707 L580 665 Z" />
      </clipPath>
      <clipPath clipPathUnits="userSpaceOnUse" id="clipPath41">
        <path d="M601 665 L655 665 L655 692 L601 692 L601 665 Z" />
      </clipPath>
      <clipPath clipPathUnits="userSpaceOnUse" id="clipPath42">
        <path d="M580 710 L602 710 L602 752 L580 752 L580 710 Z" />
      </clipPath>
      <clipPath clipPathUnits="userSpaceOnUse" id="clipPath43">
        <path d="M601 710 L643 710 L643 737 L601 737 L601 710 Z" />
      </clipPath>
      <clipPath clipPathUnits="userSpaceOnUse" id="clipPath44">
        <path d="M580 1065 L602 1065 L602 1107 L580 1107 L580 1065 Z" />
      </clipPath>
      <clipPath clipPathUnits="userSpaceOnUse" id="clipPath45">
        <path d="M601 1065 L643 1065 L643 1092 L601 1092 L601 1065 Z" />
      </clipPath>
      <clipPath clipPathUnits="userSpaceOnUse" id="clipPath46">
        <path d="M688 9 L826 9 L826 91 L688 91 L688 9 Z" />
      </clipPath>
      <clipPath clipPathUnits="userSpaceOnUse" id="clipPath47">
        <path d="M688 9 L831 9 L831 91 L688 91 L688 9 Z" />
      </clipPath>
      <clipPath clipPathUnits="userSpaceOnUse" id="clipPath48">
        <path d="M688 9 L829 9 L829 91 L688 91 L688 9 Z" />
      </clipPath>
      <clipPath clipPathUnits="userSpaceOnUse" id="clipPath49">
        <path d="M688 9 L832 9 L832 91 L688 91 L688 9 Z" />
      </clipPath>
      <clipPath clipPathUnits="userSpaceOnUse" id="clipPath50">
        <path d="M751 89 L763 89 L763 1216 L751 1216 L751 89 Z" />
      </clipPath>
      <clipPath clipPathUnits="userSpaceOnUse" id="clipPath51">
        <path d="M746 863 L768 863 L768 905 L746 905 L746 863 Z" />
      </clipPath>
      <clipPath clipPathUnits="userSpaceOnUse" id="clipPath52">
        <path d="M767 863 L821 863 L821 890 L767 890 L767 863 Z" />
      </clipPath>
      <clipPath clipPathUnits="userSpaceOnUse" id="clipPath53">
        <path d="M746 930 L768 930 L768 972 L746 972 L746 930 Z" />
      </clipPath>
      <clipPath clipPathUnits="userSpaceOnUse" id="clipPath54">
        <path d="M767 930 L809 930 L809 957 L767 957 L767 930 Z" />
      </clipPath>
      <clipPath clipPathUnits="userSpaceOnUse" id="clipPath55">
        <path d="M834 9 L984 9 L984 89 L834 89 L834 9 Z" />
      </clipPath>
      <clipPath clipPathUnits="userSpaceOnUse" id="clipPath56">
        <path d="M834 9 L988 9 L988 89 L834 89 L834 9 Z" />
      </clipPath>
      <clipPath clipPathUnits="userSpaceOnUse" id="clipPath57">
        <path d="M834 9 L987 9 L987 89 L834 89 L834 9 Z" />
      </clipPath>
      <clipPath clipPathUnits="userSpaceOnUse" id="clipPath58">
        <path d="M834 9 L989 9 L989 89 L834 89 L834 9 Z" />
      </clipPath>
      <clipPath clipPathUnits="userSpaceOnUse" id="clipPath59">
        <path d="M903 87 L915 87 L915 1216 L903 1216 L903 87 Z" />
      </clipPath>
      <clipPath clipPathUnits="userSpaceOnUse" id="clipPath60">
        <path d="M898 1124 L920 1124 L920 1166 L898 1166 L898 1124 Z" />
      </clipPath>
      <clipPath clipPathUnits="userSpaceOnUse" id="clipPath61">
        <path d="M919 1124 L961 1124 L961 1151 L919 1151 L919 1124 Z" />
      </clipPath>
      <clipPath clipPathUnits="userSpaceOnUse" id="clipPath62">
        <path d="M-1 -1 L1057 -1 L1057 1226 L-1 1226 L-1 -1 Z" />
      </clipPath>
      <clipPath clipPathUnits="userSpaceOnUse" id="clipPath63">
        <path d="M96 146 L446 146 L446 170 L96 170 L96 146 Z" />
      </clipPath>
      <clipPath clipPathUnits="userSpaceOnUse" id="clipPath64">
        <path d="M159 167 L171 167 L171 178 L159 178 L159 167 Z" />
      </clipPath>
      <clipPath clipPathUnits="userSpaceOnUse" id="clipPath65">
        <path d="M111 221 L455 221 L455 245 L111 245 L111 221 Z" />
      </clipPath>
      <clipPath clipPathUnits="userSpaceOnUse" id="clipPath66">
        <path d="M159 241 L171 241 L171 252 L159 252 L159 241 Z" />
      </clipPath>
      <clipPath clipPathUnits="userSpaceOnUse" id="clipPath67">
        <path d="M123 278 L464 278 L464 302 L123 302 L123 278 Z" />
      </clipPath>
      <clipPath clipPathUnits="userSpaceOnUse" id="clipPath68">
        <path d="M159 301 L171 301 L171 312 L159 312 L159 301 Z" />
      </clipPath>
      <clipPath clipPathUnits="userSpaceOnUse" id="clipPath69">
        <path d="M288 397 L452 397 L452 421 L288 421 L288 397 Z" />
      </clipPath>
      <clipPath clipPathUnits="userSpaceOnUse" id="clipPath70">
        <path d="M159 421 L171 421 L171 432 L159 432 L159 421 Z" />
      </clipPath>
      <clipPath clipPathUnits="userSpaceOnUse" id="clipPath71">
        <path d="M39 512 L928 512 L928 536 L39 536 L39 512 Z" />
      </clipPath>
      <clipPath clipPathUnits="userSpaceOnUse" id="clipPath72">
        <path d="M159 541 L171 541 L171 552 L159 552 L159 541 Z" />
      </clipPath>
      <clipPath clipPathUnits="userSpaceOnUse" id="clipPath73">
        <path d="M78 947 L422 947 L422 971 L78 971 L78 947 Z" />
      </clipPath>
      <clipPath clipPathUnits="userSpaceOnUse" id="clipPath74">
        <path d="M159 971 L171 971 L171 982 L159 982 L159 971 Z" />
      </clipPath>
      <clipPath clipPathUnits="userSpaceOnUse" id="clipPath75">
        <path d="M52 322 L730 322 L730 346 L52 346 L52 322 Z" />
      </clipPath>
      <clipPath clipPathUnits="userSpaceOnUse" id="clipPath76">
        <path d="M572 350 L584 350 L584 361 L572 361 L572 350 Z" />
      </clipPath>
      <clipPath clipPathUnits="userSpaceOnUse" id="clipPath77">
        <path d="M74 452 L480 452 L480 476 L74 476 L74 452 Z" />
      </clipPath>
      <clipPath clipPathUnits="userSpaceOnUse" id="clipPath78">
        <path d="M572 473 L584 473 L584 484 L572 484 L572 473 Z" />
      </clipPath>
      <clipPath clipPathUnits="userSpaceOnUse" id="clipPath79">
        <path d="M182 570 L469 570 L469 594 L182 594 L182 570 Z" />
      </clipPath>
      <clipPath clipPathUnits="userSpaceOnUse" id="clipPath80">
        <path d="M572 591 L584 591 L584 602 L572 602 L572 591 Z" />
      </clipPath>
      <clipPath clipPathUnits="userSpaceOnUse" id="clipPath81">
        <path d="M324 643 L422 643 L422 670 L324 670 L324 643 Z" />
      </clipPath>
      <clipPath clipPathUnits="userSpaceOnUse" id="clipPath82">
        <path d="M159 661 L171 661 L171 672 L159 672 L159 661 Z" />
      </clipPath>
      <clipPath clipPathUnits="userSpaceOnUse" id="clipPath83">
        <path d="M145 738 L444 738 L444 765 L145 765 L145 738 Z" />
      </clipPath>
      <clipPath clipPathUnits="userSpaceOnUse" id="clipPath84">
        <path d="M159 756 L171 756 L171 767 L159 767 L159 756 Z" />
      </clipPath>
      <clipPath clipPathUnits="userSpaceOnUse" id="clipPath85">
        <path d="M23 821 L1037 821 L1037 848 L23 848 L23 821 Z" />
      </clipPath>
      <clipPath clipPathUnits="userSpaceOnUse" id="clipPath86">
        <path d="M159 859 L171 859 L171 870 L159 870 L159 859 Z" />
      </clipPath>
      <clipPath clipPathUnits="userSpaceOnUse" id="clipPath87">
        <path d="M173 998 L416 998 L416 1025 L173 1025 L173 998 Z" />
      </clipPath>
      <clipPath clipPathUnits="userSpaceOnUse" id="clipPath88">
        <path d="M159 1016 L171 1016 L171 1027 L159 1027 L159 1016 Z" />
      </clipPath>
      <clipPath clipPathUnits="userSpaceOnUse" id="clipPath89">
        <path d="M183 688 L563 688 L563 715 L183 715 L183 688 Z" />
      </clipPath>
      <clipPath clipPathUnits="userSpaceOnUse" id="clipPath90">
        <path d="M572 706 L584 706 L584 717 L572 717 L572 706 Z" />
      </clipPath>
      <clipPath clipPathUnits="userSpaceOnUse" id="clipPath91">
        <path d="M28 908 L885 908 L885 935 L28 935 L28 908 Z" />
      </clipPath>
      <clipPath clipPathUnits="userSpaceOnUse" id="clipPath92">
        <path d="M738 926 L750 926 L750 937 L738 937 L738 926 Z" />
      </clipPath>
      <clipPath clipPathUnits="userSpaceOnUse" id="clipPath93">
        <path d="M37 1029 L774 1029 L774 1056 L37 1056 L37 1029 Z" />
      </clipPath>
      <clipPath clipPathUnits="userSpaceOnUse" id="clipPath94">
        <path d="M572 1061 L584 1061 L584 1072 L572 1072 L572 1061 Z" />
      </clipPath>
      <clipPath clipPathUnits="userSpaceOnUse" id="clipPath95">
        <path d="M164 1102 L901 1102 L901 1129 L164 1129 L164 1102 Z" />
      </clipPath>
      <clipPath clipPathUnits="userSpaceOnUse" id="clipPath96">
        <path d="M890 1120 L902 1120 L902 1131 L890 1131 L890 1120 Z" />
      </clipPath>
    </defs>
    <g font-size="19" fill="rgb(238,201,142)" font-family="'Lucida Sans'" stroke-linejoin="round" stroke="rgb(238,201,142)" stroke-width="0" stroke-miterlimit="0">
      <rect x="126" y="10" clip-path="url(#clipPath1)" width="70" height="30" stroke="none" />
    </g>
    <g stroke-width="0.1" font-size="19" font-family="'Lucida Sans'" stroke-linecap="butt">
      <rect x="126" y="10" clip-path="url(#clipPath1)" fill="none" width="69" height="29" />
      <text xml:space="preserve" x="127" y="33" clip-path="url(#clipPath2)" stroke="none">System</text>
      <line clip-path="url(#clipPath3)" fill="none" x1="160" x2="160" y1="40" y2="1215" stroke-dasharray="10,10" stroke-width="1.1" />
    </g>
    <g stroke-linecap="butt" font-size="19" fill="rgb(255,245,181)" font-family="'Lucida Sans'" stroke-dasharray="10,10" stroke="rgb(255,245,181)" stroke-width="1.1">
      <rect x="225" y="10" clip-path="url(#clipPath4)" width="134" height="86" stroke="none" />
    </g>
    <g stroke-width="0.1" font-size="19" font-family="'Lucida Sans'" stroke-linecap="butt">
      <rect x="225" y="10" clip-path="url(#clipPath4)" fill="none" width="133" height="85" />
      <text xml:space="preserve" x="242" y="39" clip-path="url(#clipPath5)" stroke="none">theCreator</text>
      <text xml:space="preserve" x="286" y="61" clip-path="url(#clipPath6)" stroke="none">: </text>
      <text xml:space="preserve" x="226" y="83" clip-path="url(#clipPath7)" stroke="none">actMsrCreator</text>
      <line clip-path="url(#clipPath8)" fill="none" x1="291" x2="291" y1="96" y2="1215" stroke-dasharray="10,10" stroke-width="1.1" />
    </g>
    <g stroke-linecap="butt" font-size="19" fill="rgb(39,76,114)" font-family="'Lucida Sans'" stroke-dasharray="10,10" stroke="rgb(39,76,114)" stroke-width="1.1">
      <rect x="282" y="172" clip-path="url(#clipPath9)" width="20" height="40" stroke="none" />
      <rect x="282" y="172" clip-path="url(#clipPath9)" fill="none" width="19" stroke-dasharray="none" height="39" stroke-width="0.1" />
    </g>
    <g stroke-width="0.1" font-size="19" font-family="'Lucida Sans'" stroke-linecap="butt">
      <text xml:space="preserve" x="303" y="191" clip-path="url(#clipPath10)" stroke="none">out01</text>
      <rect x="373" y="10" clip-path="url(#clipPath11)" fill="rgb(255,245,181)" width="121" height="86" stroke="none" />
      <rect x="373" y="10" clip-path="url(#clipPath11)" fill="none" width="120" height="85" />
      <text xml:space="preserve" x="392" y="39" clip-path="url(#clipPath12)" stroke="none">theClock</text>
      <text xml:space="preserve" x="427" y="61" clip-path="url(#clipPath13)" stroke="none">: </text>
      <text xml:space="preserve" x="376" y="83" clip-path="url(#clipPath14)" stroke="none">actActivator</text>
      <line clip-path="url(#clipPath15)" fill="none" x1="432" x2="432" y1="96" y2="1215" stroke-dasharray="10,10" stroke-width="1.1" />
    </g>
    <g stroke-linecap="butt" font-size="19" fill="rgb(39,76,114)" font-family="'Lucida Sans'" stroke-dasharray="10,10" stroke="rgb(39,76,114)" stroke-width="1.1">
      <rect x="423" y="246" clip-path="url(#clipPath16)" width="20" height="40" stroke="none" />
      <rect x="423" y="246" clip-path="url(#clipPath16)" fill="none" width="19" stroke-dasharray="none" height="39" stroke-width="0.1" />
    </g>
    <g stroke-width="0.1" font-size="19" font-family="'Lucida Sans'" stroke-linecap="butt">
      <text xml:space="preserve" x="444" y="265" clip-path="url(#clipPath17)" stroke="none">out02</text>
      <rect x="423" y="976" clip-path="url(#clipPath18)" fill="rgb(39,76,114)" width="20" height="40" stroke="none" />
      <rect x="423" y="976" clip-path="url(#clipPath18)" fill="none" width="19" height="39" stroke="rgb(39,76,114)" />
      <text xml:space="preserve" x="444" y="995" clip-path="url(#clipPath19)" stroke="none">out09</text>
    </g>
    <g fill="rgb(39,76,114)" stroke-width="0.1" font-family="'Segoe UI'" stroke-linecap="butt" stroke="rgb(39,76,114)">
      <rect x="423" y="761" clip-path="url(#clipPath20)" width="20" height="40" stroke="none" />
      <rect x="423" y="761" clip-path="url(#clipPath20)" fill="none" width="19" height="39" />
      <text x="444" font-size="19" y="782" clip-path="url(#clipPath21)" fill="black" stroke="none" xml:space="preserve">out07</text>
      <rect x="423" y="1021" clip-path="url(#clipPath22)" width="20" height="40" stroke="none" />
      <rect x="423" y="1021" clip-path="url(#clipPath22)" fill="none" width="19" height="39" />
      <text x="444" font-size="19" y="1042" clip-path="url(#clipPath23)" fill="black" stroke="none" xml:space="preserve">out10</text>
    </g>
    <g stroke-linecap="butt" font-size="19" fill="rgb(255,245,181)" font-family="'Lucida Sans'" stroke="rgb(255,245,181)" stroke-width="0.1">
      <rect x="510" y="10" clip-path="url(#clipPath24)" width="163" height="84" stroke="none" />
      <rect x="510" y="10" clip-path="url(#clipPath24)" fill="none" width="162" height="83" stroke="black" />
      <text x="576" y="38" clip-path="url(#clipPath25)" fill="black" stroke="none" xml:space="preserve">bill</text>
      <text x="585" y="60" clip-path="url(#clipPath25)" fill="black" stroke="none" xml:space="preserve">: </text>
      <text x="512" y="82" clip-path="url(#clipPath26)" fill="black" stroke="none" xml:space="preserve">actAdministrator</text>
    </g>
    <g stroke-width="1.1" font-size="19" stroke-dasharray="10,10" font-family="'Lucida Sans'" stroke-linecap="butt">
      <line clip-path="url(#clipPath27)" fill="none" x1="590" x2="590" y1="94" y2="1215" />
      <rect x="581" y="306" clip-path="url(#clipPath28)" fill="rgb(39,76,114)" width="20" height="40" stroke="none" />
    </g>
    <g stroke-linecap="butt" font-size="19" fill="rgb(39,76,114)" font-family="'Lucida Sans'" stroke="rgb(39,76,114)" stroke-width="0.1">
      <rect x="581" y="306" clip-path="url(#clipPath28)" fill="none" width="19" height="39" />
      <text x="602" y="325" clip-path="url(#clipPath29)" fill="black" stroke="none" xml:space="preserve">out03</text>
      <rect x="581" y="426" clip-path="url(#clipPath30)" width="20" height="40" stroke="none" />
      <rect x="581" y="426" clip-path="url(#clipPath30)" fill="none" width="19" height="39" />
      <text x="602" y="445" clip-path="url(#clipPath31)" fill="black" stroke="none" xml:space="preserve">out04</text>
      <rect x="581" y="546" clip-path="url(#clipPath32)" width="20" height="40" stroke="none" />
      <rect x="581" y="546" clip-path="url(#clipPath32)" fill="none" width="19" height="39" />
      <text x="602" y="565" clip-path="url(#clipPath33)" fill="black" stroke="none" xml:space="preserve">out05</text>
      <rect x="581" y="355" clip-path="url(#clipPath34)" fill="rgb(194,239,255)" width="20" height="40" stroke="none" />
      <rect x="581" y="355" clip-path="url(#clipPath34)" fill="none" width="19" height="39" stroke="rgb(194,239,255)" />
      <text x="602" y="374" clip-path="url(#clipPath35)" fill="black" stroke="none" xml:space="preserve">in01</text>
      <rect x="581" y="478" clip-path="url(#clipPath36)" fill="rgb(194,239,255)" width="20" height="40" stroke="none" />
      <rect x="581" y="478" clip-path="url(#clipPath36)" fill="none" width="19" height="39" stroke="rgb(194,239,255)" />
      <text x="602" y="497" clip-path="url(#clipPath37)" fill="black" stroke="none" xml:space="preserve">in02</text>
      <rect x="581" y="596" clip-path="url(#clipPath38)" fill="rgb(194,239,255)" width="20" height="40" stroke="none" />
      <rect x="581" y="596" clip-path="url(#clipPath38)" fill="none" width="19" height="39" stroke="rgb(194,239,255)" />
      <text x="602" y="615" clip-path="url(#clipPath39)" fill="black" stroke="none" xml:space="preserve">in03</text>
      <rect x="581" y="666" clip-path="url(#clipPath40)" width="20" height="40" stroke="none" />
      <rect x="581" y="666" clip-path="url(#clipPath40)" fill="none" width="19" height="39" />
      <text x="602" y="687" clip-path="url(#clipPath41)" fill="black" font-family="'Segoe UI'" stroke="none" xml:space="preserve">out06</text>
    </g>
    <g fill="rgb(194,239,255)" stroke-width="0.1" font-family="'Segoe UI'" stroke-linecap="butt" stroke="rgb(194,239,255)">
      <rect x="581" y="711" clip-path="url(#clipPath42)" width="20" height="40" stroke="none" />
      <rect x="581" y="711" clip-path="url(#clipPath42)" fill="none" width="19" height="39" />
      <text x="602" font-size="19" y="732" clip-path="url(#clipPath43)" fill="black" stroke="none" xml:space="preserve">in04</text>
      <rect x="581" y="1066" clip-path="url(#clipPath44)" width="20" height="40" stroke="none" />
      <rect x="581" y="1066" clip-path="url(#clipPath44)" fill="none" width="19" height="39" />
      <text x="602" font-size="19" y="1087" clip-path="url(#clipPath45)" fill="black" stroke="none" xml:space="preserve">in06</text>
    </g>
    <g stroke-linecap="butt" font-size="19" fill="rgb(255,245,181)" font-family="'Lucida Sans'" stroke="rgb(255,245,181)" stroke-width="0.1">
      <rect x="689" y="10" clip-path="url(#clipPath46)" width="136" height="80" stroke="none" />
      <rect x="689" y="10" clip-path="url(#clipPath46)" fill="none" width="135" height="79" stroke="black" />
      <text x="730" y="25" clip-path="url(#clipPath47)" fill="black" stroke="none" xml:space="preserve">tango</text>
      <text x="751" y="47" clip-path="url(#clipPath48)" fill="black" stroke="none" xml:space="preserve">: </text>
      <text x="689" y="69" clip-path="url(#clipPath49)" fill="black" stroke="none" xml:space="preserve">actComCompa</text>
      <text x="745" y="91" clip-path="url(#clipPath47)" fill="black" stroke="none" xml:space="preserve">ny</text>
    </g>
    <g stroke-width="1.1" font-size="19" stroke-dasharray="10,10" font-family="'Lucida Sans'" stroke-linecap="butt">
      <line clip-path="url(#clipPath50)" fill="none" x1="756" x2="756" y1="90" y2="1215" />
    </g>
    <g stroke-linecap="butt" fill="rgb(39,76,114)" font-family="'Segoe UI'" stroke-dasharray="10,10" stroke="rgb(39,76,114)" stroke-width="1.1">
      <rect x="747" y="864" clip-path="url(#clipPath51)" width="20" height="40" stroke="none" />
      <rect x="747" y="864" clip-path="url(#clipPath51)" fill="none" width="19" stroke-dasharray="none" height="39" stroke-width="0.1" />
    </g>
    <g stroke-width="0.1" font-size="19" font-family="'Segoe UI'" stroke-linecap="butt">
      <text xml:space="preserve" x="768" y="885" clip-path="url(#clipPath52)" stroke="none">out08</text>
      <rect x="747" y="931" clip-path="url(#clipPath53)" fill="rgb(194,239,255)" width="20" height="40" stroke="none" />
      <rect x="747" y="931" clip-path="url(#clipPath53)" fill="none" width="19" height="39" stroke="rgb(194,239,255)" />
      <text xml:space="preserve" x="768" y="952" clip-path="url(#clipPath54)" stroke="none">in05</text>
      <rect x="835" y="10" clip-path="url(#clipPath55)" fill="rgb(255,245,181)" width="148" height="78" stroke="none" />
      <rect x="835" y="10" clip-path="url(#clipPath55)" fill="none" width="147" height="77" />
      <text x="884" y="35" clip-path="url(#clipPath56)" font-family="'Lucida Sans'" stroke="none" xml:space="preserve">steve</text>
      <text x="902" y="57" clip-path="url(#clipPath57)" font-family="'Lucida Sans'" stroke="none" xml:space="preserve">: </text>
      <text x="838" y="79" clip-path="url(#clipPath58)" font-family="'Lucida Sans'" stroke="none" xml:space="preserve">actCoordinator</text>
      <line clip-path="url(#clipPath59)" fill="none" x1="908" x2="908" y1="88" y2="1215" stroke-dasharray="10,10" stroke-width="1.1" />
    </g>
    <g stroke-linecap="butt" fill="rgb(194,239,255)" font-family="'Segoe UI'" stroke-dasharray="10,10" stroke="rgb(194,239,255)" stroke-width="1.1">
      <rect x="899" y="1125" clip-path="url(#clipPath60)" width="20" height="40" stroke="none" />
      <rect x="899" y="1125" clip-path="url(#clipPath60)" fill="none" width="19" stroke-dasharray="none" height="39" stroke-width="0.1" />
    </g>
    <g stroke-width="0.1" font-size="19" font-family="'Segoe UI'" stroke-linecap="butt">
      <text xml:space="preserve" x="920" y="1146" clip-path="url(#clipPath61)" stroke="none">in07</text>
    </g>
    <g stroke-linecap="butt" font-size="19" fill="rgb(136,136,136)" font-family="'Lucida Sans'" stroke="rgb(136,136,136)" stroke-width="2.1">
      <line clip-path="url(#clipPath62)" fill="none" x1="282" x2="161" y1="172" y2="172" />
      <text x="97" y="166" clip-path="url(#clipPath63)" fill="black" stroke="none" xml:space="preserve">oeCreateSystemAndEnvironment("4")</text>
      <line clip-path="url(#clipPath64)" fill="none" x1="168" x2="161" y1="169" y2="172" />
      <line clip-path="url(#clipPath64)" fill="none" x1="161" x2="168" y1="172" y2="175" />
      <line clip-path="url(#clipPath62)" fill="none" x1="423" x2="161" y1="246" y2="246" />
      <text x="112" y="241" clip-path="url(#clipPath65)" fill="black" stroke="none" xml:space="preserve">oeSetClock("2017:11:24 - 03:20:00")</text>
      <line clip-path="url(#clipPath66)" fill="none" x1="168" x2="161" y1="243" y2="246" />
      <line clip-path="url(#clipPath66)" fill="none" x1="161" x2="168" y1="246" y2="249" />
      <line clip-path="url(#clipPath62)" fill="none" x1="581" x2="161" y1="306" y2="306" />
      <text x="124" y="298" clip-path="url(#clipPath67)" fill="black" stroke="none" xml:space="preserve">oeLogin("icrashadmin","7WXC1359")</text>
      <line clip-path="url(#clipPath68)" fill="none" x1="168" x2="161" y1="303" y2="306" />
      <line clip-path="url(#clipPath68)" fill="none" x1="161" x2="168" y1="306" y2="309" />
      <line clip-path="url(#clipPath62)" fill="none" x1="581" x2="161" y1="426" y2="426" />
      <text x="289" y="417" clip-path="url(#clipPath69)" fill="black" stroke="none" xml:space="preserve">oeSMS("456123")</text>
      <line clip-path="url(#clipPath70)" fill="none" x1="168" x2="161" y1="423" y2="426" />
      <line clip-path="url(#clipPath70)" fill="none" x1="161" x2="168" y1="426" y2="429" />
      <line clip-path="url(#clipPath62)" fill="none" x1="581" x2="161" y1="546" y2="546" />
      <text x="40" y="532" clip-path="url(#clipPath71)" fill="black" stroke="none" xml:space="preserve">oeAddCoordinator("1","steve","pwdMessirExcalibur2017","8933123434","southWestern","high")</text>
      <line clip-path="url(#clipPath72)" fill="none" x1="168" x2="161" y1="543" y2="546" />
      <line clip-path="url(#clipPath72)" fill="none" x1="161" x2="168" y1="546" y2="549" />
      <line clip-path="url(#clipPath62)" fill="none" x1="423" x2="161" y1="976" y2="976" />
      <text x="79" y="967" clip-path="url(#clipPath73)" fill="black" stroke="none" xml:space="preserve">oeSetClock("2017:11:26 - 10:30:00")</text>
      <line clip-path="url(#clipPath74)" fill="none" x1="168" x2="161" y1="973" y2="976" />
      <line clip-path="url(#clipPath74)" fill="none" x1="161" x2="168" y1="976" y2="979" />
      <line clip-path="url(#clipPath62)" fill="none" x1="581" x2="161" y1="355" y2="355" stroke-dasharray="5,5" />
      <text x="53" y="342" clip-path="url(#clipPath75)" fill="black" stroke-dasharray="5,5" stroke="none" xml:space="preserve">ieMessage(You login and password are correct. Sms code has been sent)</text>
      <line clip-path="url(#clipPath76)" fill="none" x1="574" x2="581" y1="358" y2="355" />
      <line clip-path="url(#clipPath76)" fill="none" x1="581" x2="574" y1="355" y2="352" />
      <line clip-path="url(#clipPath62)" fill="none" x1="581" x2="161" y1="478" y2="478" stroke-dasharray="5,5" />
      <text x="75" y="472" clip-path="url(#clipPath77)" fill="black" stroke-dasharray="5,5" stroke="none" xml:space="preserve">ieMessage(You are logged in ! Wellcome ...)</text>
      <line clip-path="url(#clipPath78)" fill="none" x1="574" x2="581" y1="481" y2="478" />
      <line clip-path="url(#clipPath78)" fill="none" x1="581" x2="574" y1="478" y2="475" />
      <line clip-path="url(#clipPath62)" fill="none" x1="581" x2="161" y1="596" y2="596" stroke-dasharray="5,5" />
      <text x="183" y="590" clip-path="url(#clipPath79)" fill="black" stroke-dasharray="5,5" stroke="none" xml:space="preserve">ieCoordinatorAddedreturned()</text>
      <line clip-path="url(#clipPath80)" fill="none" x1="574" x2="581" y1="599" y2="596" />
      <line clip-path="url(#clipPath80)" fill="none" x1="581" x2="574" y1="596" y2="593" />
      <line clip-path="url(#clipPath62)" fill="none" x1="581" x2="161" y1="666" y2="666" />
      <text x="325" y="665" clip-path="url(#clipPath81)" fill="black" font-family="'Segoe UI'" stroke="none" xml:space="preserve">oeLogout()</text>
      <line clip-path="url(#clipPath82)" fill="none" x1="168" x2="161" y1="663" y2="666" />
      <line clip-path="url(#clipPath82)" fill="none" x1="161" x2="168" y1="666" y2="669" />
      <line clip-path="url(#clipPath62)" fill="none" x1="423" x2="161" y1="761" y2="761" />
      <text x="146" y="760" clip-path="url(#clipPath83)" fill="black" font-family="'Segoe UI'" stroke="none" xml:space="preserve">oeSetClock("2017:11:26 - 10:15:00")</text>
      <line clip-path="url(#clipPath84)" fill="none" x1="168" x2="161" y1="758" y2="761" />
      <line clip-path="url(#clipPath84)" fill="none" x1="161" x2="168" y1="761" y2="764" />
      <line clip-path="url(#clipPath62)" fill="none" x1="747" x2="161" y1="864" y2="864" />
      <text x="24" y="843" clip-path="url(#clipPath85)" fill="black" font-family="'Segoe UI'" stroke="none" xml:space="preserve">oeAlert("witness","2017:11:26","10:10:16","+3524666445252","49.627675:6.159590","3 cars involved in an accident.","high")</text>
      <line clip-path="url(#clipPath86)" fill="none" x1="168" x2="161" y1="861" y2="864" />
      <line clip-path="url(#clipPath86)" fill="none" x1="161" x2="168" y1="864" y2="867" />
      <line clip-path="url(#clipPath62)" fill="none" x1="423" x2="161" y1="1021" y2="1021" />
      <text x="174" y="1020" clip-path="url(#clipPath87)" fill="black" font-family="'Segoe UI'" stroke="none" xml:space="preserve">oeSollicitateCrisisHandling()</text>
      <line clip-path="url(#clipPath88)" fill="none" x1="168" x2="161" y1="1018" y2="1021" />
      <line clip-path="url(#clipPath88)" fill="none" x1="161" x2="168" y1="1021" y2="1024" />
      <line clip-path="url(#clipPath62)" fill="none" x1="581" x2="161" y1="711" y2="711" stroke-dasharray="5,5" />
    </g>
    <g stroke-width="2.1" font-size="19" stroke-dasharray="5,5" font-family="'Segoe UI'" stroke-linecap="butt">
      <text xml:space="preserve" x="184" y="710" clip-path="url(#clipPath89)" stroke="none">ieMessage(You are logged out ! Good Bye ...)</text>
      <line clip-path="url(#clipPath90)" fill="none" x1="574" x2="581" y1="714" y2="711" stroke-dasharray="none" stroke="rgb(136,136,136)" />
      <line clip-path="url(#clipPath90)" fill="none" x1="581" x2="574" y1="711" y2="708" stroke-dasharray="none" stroke="rgb(136,136,136)" />
      <line clip-path="url(#clipPath62)" fill="none" x1="747" x2="161" y1="931" y2="931" stroke="rgb(136,136,136)" />
      <text xml:space="preserve" x="29" y="930" clip-path="url(#clipPath91)" stroke="none">ieSmsSend(+3524666445252,Your alert has been registered. We will handle it and keep you informed)</text>
      <line clip-path="url(#clipPath92)" fill="none" x1="740" x2="747" y1="934" y2="931" stroke-dasharray="none" stroke="rgb(136,136,136)" />
      <line clip-path="url(#clipPath92)" fill="none" x1="747" x2="740" y1="931" y2="928" stroke-dasharray="none" stroke="rgb(136,136,136)" />
      <line clip-path="url(#clipPath62)" fill="none" x1="581" x2="161" y1="1066" y2="1066" stroke="rgb(136,136,136)" />
      <text xml:space="preserve" x="38" y="1051" clip-path="url(#clipPath93)" stroke="none">ieMessage(There are alerts pending since more than the defined delay. Please REACT !)</text>
      <line clip-path="url(#clipPath94)" fill="none" x1="574" x2="581" y1="1069" y2="1066" stroke-dasharray="none" stroke="rgb(136,136,136)" />
      <line clip-path="url(#clipPath94)" fill="none" x1="581" x2="574" y1="1066" y2="1063" stroke-dasharray="none" stroke="rgb(136,136,136)" />
      <line clip-path="url(#clipPath62)" fill="none" x1="899" x2="161" y1="1125" y2="1125" stroke="rgb(136,136,136)" />
      <text xml:space="preserve" x="165" y="1124" clip-path="url(#clipPath95)" stroke="none">ieMessage(There are alerts pending since more than the defined delay. Please REACT !)</text>
      <line clip-path="url(#clipPath96)" fill="none" x1="892" x2="899" y1="1128" y2="1125" stroke-dasharray="none" stroke="rgb(136,136,136)" />
      <line clip-path="url(#clipPath96)" fill="none" x1="899" x2="892" y1="1125" y2="1122" stroke-dasharray="none" stroke="rgb(136,136,136)" />
    </g>
  </g>
</svg>

