<?xml version="1.0" encoding="UTF-8"?>
<svg xmlns="http://www.w3.org/2000/svg" xmlns:xlink="http://www.w3.org/1999/xlink" stroke-dasharray="none" shape-rendering="auto" font-family="'Dialog'" width="1062" text-rendering="auto" fill-opacity="1" contentScriptType="text/ecmascript" color-interpolation="auto" color-rendering="auto" preserveAspectRatio="xMidYMid meet" font-size="12" viewBox="0 0 1062 1495" fill="black" stroke="black" image-rendering="auto" stroke-miterlimit="10" zoomAndPan="magnify" version="1.0" stroke-linecap="square" stroke-linejoin="miter" contentStyleType="text/css" font-style="normal" height="1495" stroke-width="1" stroke-dashoffset="0" font-weight="normal" stroke-opacity="1">
  <!--Generated by the Batik Graphics2D SVG Generator-->
  <defs id="genericDefs" />
  <g>
    <defs id="defs1">
      <clipPath clipPathUnits="userSpaceOnUse" id="clipPath1">
        <path d="M202 9 L274 9 L274 41 L202 41 L202 9 Z" />
      </clipPath>
      <clipPath clipPathUnits="userSpaceOnUse" id="clipPath2">
        <path d="M202 9 L279 9 L279 41 L202 41 L202 9 Z" />
      </clipPath>
      <clipPath clipPathUnits="userSpaceOnUse" id="clipPath3">
        <path d="M232 39 L244 39 L244 1486 L232 1486 L232 39 Z" />
      </clipPath>
      <clipPath clipPathUnits="userSpaceOnUse" id="clipPath4">
        <path d="M302 9 L424 9 L424 61 L302 61 L302 9 Z" />
      </clipPath>
      <clipPath clipPathUnits="userSpaceOnUse" id="clipPath5">
        <path d="M302 9 L428 9 L428 61 L302 61 L302 9 Z" />
      </clipPath>
      <clipPath clipPathUnits="userSpaceOnUse" id="clipPath6">
        <path d="M302 9 L427 9 L427 61 L302 61 L302 9 Z" />
      </clipPath>
      <clipPath clipPathUnits="userSpaceOnUse" id="clipPath7">
        <path d="M357 59 L369 59 L369 1486 L357 1486 L357 59 Z" />
      </clipPath>
      <clipPath clipPathUnits="userSpaceOnUse" id="clipPath8">
        <path d="M452 9 L573 9 L573 61 L452 61 L452 9 Z" />
      </clipPath>
      <clipPath clipPathUnits="userSpaceOnUse" id="clipPath9">
        <path d="M452 9 L578 9 L578 61 L452 61 L452 9 Z" />
      </clipPath>
      <clipPath clipPathUnits="userSpaceOnUse" id="clipPath10">
        <path d="M452 9 L576 9 L576 61 L452 61 L452 9 Z" />
      </clipPath>
      <clipPath clipPathUnits="userSpaceOnUse" id="clipPath11">
        <path d="M452 9 L577 9 L577 61 L452 61 L452 9 Z" />
      </clipPath>
      <clipPath clipPathUnits="userSpaceOnUse" id="clipPath12">
        <path d="M506 59 L518 59 L518 1486 L506 1486 L506 59 Z" />
      </clipPath>
      <clipPath clipPathUnits="userSpaceOnUse" id="clipPath13">
        <path d="M501 629 L523 629 L523 671 L501 671 L501 629 Z" />
      </clipPath>
      <clipPath clipPathUnits="userSpaceOnUse" id="clipPath14">
        <path d="M522 629 L576 629 L576 656 L522 656 L522 629 Z" />
      </clipPath>
      <clipPath clipPathUnits="userSpaceOnUse" id="clipPath15">
        <path d="M501 1049 L523 1049 L523 1091 L501 1091 L501 1049 Z" />
      </clipPath>
      <clipPath clipPathUnits="userSpaceOnUse" id="clipPath16">
        <path d="M522 1049 L576 1049 L576 1076 L522 1076 L522 1049 Z" />
      </clipPath>
      <clipPath clipPathUnits="userSpaceOnUse" id="clipPath17">
        <path d="M601 9 L733 9 L733 61 L601 61 L601 9 Z" />
      </clipPath>
      <clipPath clipPathUnits="userSpaceOnUse" id="clipPath18">
        <path d="M601 9 L736 9 L736 61 L601 61 L601 9 Z" />
      </clipPath>
      <clipPath clipPathUnits="userSpaceOnUse" id="clipPath19">
        <path d="M601 9 L737 9 L737 61 L601 61 L601 9 Z" />
      </clipPath>
      <clipPath clipPathUnits="userSpaceOnUse" id="clipPath20">
        <path d="M661 59 L673 59 L673 1486 L661 1486 L661 59 Z" />
      </clipPath>
      <clipPath clipPathUnits="userSpaceOnUse" id="clipPath21">
        <path d="M761 9 L895 9 L895 61 L761 61 L761 9 Z" />
      </clipPath>
      <clipPath clipPathUnits="userSpaceOnUse" id="clipPath22">
        <path d="M761 9 L900 9 L900 61 L761 61 L761 9 Z" />
      </clipPath>
      <clipPath clipPathUnits="userSpaceOnUse" id="clipPath23">
        <path d="M761 9 L898 9 L898 61 L761 61 L761 9 Z" />
      </clipPath>
      <clipPath clipPathUnits="userSpaceOnUse" id="clipPath24">
        <path d="M822 59 L834 59 L834 1486 L822 1486 L822 59 Z" />
      </clipPath>
      <clipPath clipPathUnits="userSpaceOnUse" id="clipPath25">
        <path d="M817 809 L839 809 L839 851 L817 851 L817 809 Z" />
      </clipPath>
      <clipPath clipPathUnits="userSpaceOnUse" id="clipPath26">
        <path d="M838 809 L892 809 L892 836 L838 836 L838 809 Z" />
      </clipPath>
      <clipPath clipPathUnits="userSpaceOnUse" id="clipPath27">
        <path d="M817 509 L839 509 L839 551 L817 551 L817 509 Z" />
      </clipPath>
      <clipPath clipPathUnits="userSpaceOnUse" id="clipPath28">
        <path d="M838 509 L880 509 L880 536 L838 536 L838 509 Z" />
      </clipPath>
      <clipPath clipPathUnits="userSpaceOnUse" id="clipPath29">
        <path d="M817 869 L839 869 L839 911 L817 911 L817 869 Z" />
      </clipPath>
      <clipPath clipPathUnits="userSpaceOnUse" id="clipPath30">
        <path d="M838 869 L880 869 L880 896 L838 896 L838 869 Z" />
      </clipPath>
      <clipPath clipPathUnits="userSpaceOnUse" id="clipPath31">
        <path d="M817 929 L839 929 L839 971 L817 971 L817 929 Z" />
      </clipPath>
      <clipPath clipPathUnits="userSpaceOnUse" id="clipPath32">
        <path d="M838 929 L892 929 L892 956 L838 956 L838 929 Z" />
      </clipPath>
      <clipPath clipPathUnits="userSpaceOnUse" id="clipPath33">
        <path d="M817 989 L839 989 L839 1031 L817 1031 L817 989 Z" />
      </clipPath>
      <clipPath clipPathUnits="userSpaceOnUse" id="clipPath34">
        <path d="M838 989 L880 989 L880 1016 L838 1016 L838 989 Z" />
      </clipPath>
      <clipPath clipPathUnits="userSpaceOnUse" id="clipPath35">
        <path d="M923 9 L1047 9 L1047 61 L923 61 L923 9 Z" />
      </clipPath>
      <clipPath clipPathUnits="userSpaceOnUse" id="clipPath36">
        <path d="M923 9 L1051 9 L1051 61 L923 61 L923 9 Z" />
      </clipPath>
      <clipPath clipPathUnits="userSpaceOnUse" id="clipPath37">
        <path d="M923 9 L1050 9 L1050 61 L923 61 L923 9 Z" />
      </clipPath>
      <clipPath clipPathUnits="userSpaceOnUse" id="clipPath38">
        <path d="M979 59 L991 59 L991 1486 L979 1486 L979 59 Z" />
      </clipPath>
      <clipPath clipPathUnits="userSpaceOnUse" id="clipPath39">
        <path d="M974 89 L996 89 L996 131 L974 131 L974 89 Z" />
      </clipPath>
      <clipPath clipPathUnits="userSpaceOnUse" id="clipPath40">
        <path d="M995 89 L1058 89 L1058 113 L995 113 L995 89 Z" />
      </clipPath>
      <clipPath clipPathUnits="userSpaceOnUse" id="clipPath41">
        <path d="M974 209 L996 209 L996 251 L974 251 L974 209 Z" />
      </clipPath>
      <clipPath clipPathUnits="userSpaceOnUse" id="clipPath42">
        <path d="M995 209 L1058 209 L1058 233 L995 233 L995 209 Z" />
      </clipPath>
      <clipPath clipPathUnits="userSpaceOnUse" id="clipPath43">
        <path d="M974 329 L996 329 L996 371 L974 371 L974 329 Z" />
      </clipPath>
      <clipPath clipPathUnits="userSpaceOnUse" id="clipPath44">
        <path d="M995 329 L1058 329 L1058 353 L995 353 L995 329 Z" />
      </clipPath>
      <clipPath clipPathUnits="userSpaceOnUse" id="clipPath45">
        <path d="M974 1109 L996 1109 L996 1151 L974 1151 L974 1109 Z" />
      </clipPath>
      <clipPath clipPathUnits="userSpaceOnUse" id="clipPath46">
        <path d="M995 1109 L1058 1109 L1058 1133 L995 1133 L995 1109 Z" />
      </clipPath>
      <clipPath clipPathUnits="userSpaceOnUse" id="clipPath47">
        <path d="M974 149 L996 149 L996 191 L974 191 L974 149 Z" />
      </clipPath>
      <clipPath clipPathUnits="userSpaceOnUse" id="clipPath48">
        <path d="M995 149 L1044 149 L1044 173 L995 173 L995 149 Z" />
      </clipPath>
      <clipPath clipPathUnits="userSpaceOnUse" id="clipPath49">
        <path d="M974 269 L996 269 L996 311 L974 311 L974 269 Z" />
      </clipPath>
      <clipPath clipPathUnits="userSpaceOnUse" id="clipPath50">
        <path d="M995 269 L1044 269 L1044 293 L995 293 L995 269 Z" />
      </clipPath>
      <clipPath clipPathUnits="userSpaceOnUse" id="clipPath51">
        <path d="M974 1169 L996 1169 L996 1211 L974 1211 L974 1169 Z" />
      </clipPath>
      <clipPath clipPathUnits="userSpaceOnUse" id="clipPath52">
        <path d="M995 1169 L1044 1169 L1044 1193 L995 1193 L995 1169 Z" />
      </clipPath>
      <clipPath clipPathUnits="userSpaceOnUse" id="clipPath53">
        <path d="M974 449 L996 449 L996 491 L974 491 L974 449 Z" />
      </clipPath>
      <clipPath clipPathUnits="userSpaceOnUse" id="clipPath54">
        <path d="M995 449 L1049 449 L1049 476 L995 476 L995 449 Z" />
      </clipPath>
      <clipPath clipPathUnits="userSpaceOnUse" id="clipPath55">
        <path d="M974 689 L996 689 L996 731 L974 731 L974 689 Z" />
      </clipPath>
      <clipPath clipPathUnits="userSpaceOnUse" id="clipPath56">
        <path d="M995 689 L1049 689 L1049 716 L995 716 L995 689 Z" />
      </clipPath>
      <clipPath clipPathUnits="userSpaceOnUse" id="clipPath57">
        <path d="M974 389 L996 389 L996 431 L974 431 L974 389 Z" />
      </clipPath>
      <clipPath clipPathUnits="userSpaceOnUse" id="clipPath58">
        <path d="M995 389 L1037 389 L1037 416 L995 416 L995 389 Z" />
      </clipPath>
      <clipPath clipPathUnits="userSpaceOnUse" id="clipPath59">
        <path d="M974 569 L996 569 L996 611 L974 611 L974 569 Z" />
      </clipPath>
      <clipPath clipPathUnits="userSpaceOnUse" id="clipPath60">
        <path d="M995 569 L1037 569 L1037 596 L995 596 L995 569 Z" />
      </clipPath>
      <clipPath clipPathUnits="userSpaceOnUse" id="clipPath61">
        <path d="M974 749 L996 749 L996 791 L974 791 L974 749 Z" />
      </clipPath>
      <clipPath clipPathUnits="userSpaceOnUse" id="clipPath62">
        <path d="M995 749 L1037 749 L1037 776 L995 776 L995 749 Z" />
      </clipPath>
      <clipPath clipPathUnits="userSpaceOnUse" id="clipPath63">
        <path d="M974 1214 L996 1214 L996 1256 L974 1256 L974 1214 Z" />
      </clipPath>
      <clipPath clipPathUnits="userSpaceOnUse" id="clipPath64">
        <path d="M995 1214 L1049 1214 L1049 1241 L995 1241 L995 1214 Z" />
      </clipPath>
      <clipPath clipPathUnits="userSpaceOnUse" id="clipPath65">
        <path d="M974 1304 L996 1304 L996 1346 L974 1346 L974 1304 Z" />
      </clipPath>
      <clipPath clipPathUnits="userSpaceOnUse" id="clipPath66">
        <path d="M995 1304 L1049 1304 L1049 1331 L995 1331 L995 1304 Z" />
      </clipPath>
      <clipPath clipPathUnits="userSpaceOnUse" id="clipPath67">
        <path d="M974 1394 L996 1394 L996 1436 L974 1436 L974 1394 Z" />
      </clipPath>
      <clipPath clipPathUnits="userSpaceOnUse" id="clipPath68">
        <path d="M995 1394 L1049 1394 L1049 1421 L995 1421 L995 1394 Z" />
      </clipPath>
      <clipPath clipPathUnits="userSpaceOnUse" id="clipPath69">
        <path d="M974 1259 L996 1259 L996 1301 L974 1301 L974 1259 Z" />
      </clipPath>
      <clipPath clipPathUnits="userSpaceOnUse" id="clipPath70">
        <path d="M995 1259 L1037 1259 L1037 1286 L995 1286 L995 1259 Z" />
      </clipPath>
      <clipPath clipPathUnits="userSpaceOnUse" id="clipPath71">
        <path d="M974 1349 L996 1349 L996 1391 L974 1391 L974 1349 Z" />
      </clipPath>
      <clipPath clipPathUnits="userSpaceOnUse" id="clipPath72">
        <path d="M995 1349 L1037 1349 L1037 1376 L995 1376 L995 1349 Z" />
      </clipPath>
      <clipPath clipPathUnits="userSpaceOnUse" id="clipPath73">
        <path d="M-1 -1 L1063 -1 L1063 1496 L-1 1496 L-1 -1 Z" />
      </clipPath>
      <clipPath clipPathUnits="userSpaceOnUse" id="clipPath74">
        <path d="M226 62 L636 62 L636 86 L226 86 L226 62 Z" />
      </clipPath>
      <clipPath clipPathUnits="userSpaceOnUse" id="clipPath75">
        <path d="M236 84 L248 84 L248 95 L236 95 L236 84 Z" />
      </clipPath>
      <clipPath clipPathUnits="userSpaceOnUse" id="clipPath76">
        <path d="M291 182 L455 182 L455 206 L291 206 L291 182 Z" />
      </clipPath>
      <clipPath clipPathUnits="userSpaceOnUse" id="clipPath77">
        <path d="M236 204 L248 204 L248 215 L236 215 L236 204 Z" />
      </clipPath>
      <clipPath clipPathUnits="userSpaceOnUse" id="clipPath78">
        <path d="M243 301 L486 301 L486 325 L243 325 L243 301 Z" />
      </clipPath>
      <clipPath clipPathUnits="userSpaceOnUse" id="clipPath79">
        <path d="M236 324 L248 324 L248 335 L236 335 L236 324 Z" />
      </clipPath>
      <clipPath clipPathUnits="userSpaceOnUse" id="clipPath80">
        <path d="M202 1082 L488 1082 L488 1106 L202 1106 L202 1082 Z" />
      </clipPath>
      <clipPath clipPathUnits="userSpaceOnUse" id="clipPath81">
        <path d="M236 1104 L248 1104 L248 1115 L236 1115 L236 1104 Z" />
      </clipPath>
      <clipPath clipPathUnits="userSpaceOnUse" id="clipPath82">
        <path d="M77 123 L763 123 L763 147 L77 147 L77 123 Z" />
      </clipPath>
      <clipPath clipPathUnits="userSpaceOnUse" id="clipPath83">
        <path d="M966 144 L978 144 L978 155 L966 155 L966 144 Z" />
      </clipPath>
      <clipPath clipPathUnits="userSpaceOnUse" id="clipPath84">
        <path d="M204 244 L618 244 L618 268 L204 268 L204 244 Z" />
      </clipPath>
      <clipPath clipPathUnits="userSpaceOnUse" id="clipPath85">
        <path d="M966 264 L978 264 L978 275 L966 275 L966 264 Z" />
      </clipPath>
      <clipPath clipPathUnits="userSpaceOnUse" id="clipPath86">
        <path d="M188 1141 L637 1141 L637 1165 L188 1165 L188 1141 Z" />
      </clipPath>
      <clipPath clipPathUnits="userSpaceOnUse" id="clipPath87">
        <path d="M966 1164 L978 1164 L978 1175 L966 1175 L966 1164 Z" />
      </clipPath>
      <clipPath clipPathUnits="userSpaceOnUse" id="clipPath88">
        <path d="M508 426 L709 426 L709 453 L508 453 L508 426 Z" />
      </clipPath>
      <clipPath clipPathUnits="userSpaceOnUse" id="clipPath89">
        <path d="M236 444 L248 444 L248 455 L236 455 L236 444 Z" />
      </clipPath>
      <clipPath clipPathUnits="userSpaceOnUse" id="clipPath90">
        <path d="M223 606 L522 606 L522 633 L223 633 L223 606 Z" />
      </clipPath>
      <clipPath clipPathUnits="userSpaceOnUse" id="clipPath91">
        <path d="M236 624 L248 624 L248 635 L236 635 L236 624 Z" />
      </clipPath>
      <clipPath clipPathUnits="userSpaceOnUse" id="clipPath92">
        <path d="M523 666 L694 666 L694 693 L523 693 L523 666 Z" />
      </clipPath>
      <clipPath clipPathUnits="userSpaceOnUse" id="clipPath93">
        <path d="M236 684 L248 684 L248 695 L236 695 L236 684 Z" />
      </clipPath>
      <clipPath clipPathUnits="userSpaceOnUse" id="clipPath94">
        <path d="M23 786 L1038 786 L1038 813 L23 813 L23 786 Z" />
      </clipPath>
      <clipPath clipPathUnits="userSpaceOnUse" id="clipPath95">
        <path d="M236 804 L248 804 L248 815 L236 815 L236 804 Z" />
      </clipPath>
      <clipPath clipPathUnits="userSpaceOnUse" id="clipPath96">
        <path d="M452 366 L764 366 L764 393 L452 393 L452 366 Z" />
      </clipPath>
      <clipPath clipPathUnits="userSpaceOnUse" id="clipPath97">
        <path d="M966 384 L978 384 L978 395 L966 395 L966 384 Z" />
      </clipPath>
      <clipPath clipPathUnits="userSpaceOnUse" id="clipPath98">
        <path d="M164 486 L896 486 L896 513 L164 513 L164 486 Z" />
      </clipPath>
      <clipPath clipPathUnits="userSpaceOnUse" id="clipPath99">
        <path d="M809 504 L821 504 L821 515 L809 515 L809 504 Z" />
      </clipPath>
      <clipPath clipPathUnits="userSpaceOnUse" id="clipPath100">
        <path d="M358 546 L859 546 L859 573 L358 573 L358 546 Z" />
      </clipPath>
      <clipPath clipPathUnits="userSpaceOnUse" id="clipPath101">
        <path d="M966 564 L978 564 L978 575 L966 575 L966 564 Z" />
      </clipPath>
      <clipPath clipPathUnits="userSpaceOnUse" id="clipPath102">
        <path d="M409 726 L807 726 L807 753 L409 753 L409 726 Z" />
      </clipPath>
      <clipPath clipPathUnits="userSpaceOnUse" id="clipPath103">
        <path d="M966 744 L978 744 L978 755 L966 755 L966 744 Z" />
      </clipPath>
      <clipPath clipPathUnits="userSpaceOnUse" id="clipPath104">
        <path d="M102 846 L959 846 L959 873 L102 873 L102 846 Z" />
      </clipPath>
      <clipPath clipPathUnits="userSpaceOnUse" id="clipPath105">
        <path d="M809 864 L821 864 L821 875 L809 875 L809 864 Z" />
      </clipPath>
      <clipPath clipPathUnits="userSpaceOnUse" id="clipPath106">
        <path d="M58 906 L1003 906 L1003 933 L58 933 L58 906 Z" />
      </clipPath>
      <clipPath clipPathUnits="userSpaceOnUse" id="clipPath107">
        <path d="M236 924 L248 924 L248 935 L236 935 L236 924 Z" />
      </clipPath>
      <clipPath clipPathUnits="userSpaceOnUse" id="clipPath108">
        <path d="M223 1026 L522 1026 L522 1053 L223 1053 L223 1026 Z" />
      </clipPath>
      <clipPath clipPathUnits="userSpaceOnUse" id="clipPath109">
        <path d="M236 1044 L248 1044 L248 1055 L236 1055 L236 1044 Z" />
      </clipPath>
      <clipPath clipPathUnits="userSpaceOnUse" id="clipPath110">
        <path d="M102 966 L959 966 L959 993 L102 993 L102 966 Z" />
      </clipPath>
      <clipPath clipPathUnits="userSpaceOnUse" id="clipPath111">
        <path d="M809 984 L821 984 L821 995 L809 995 L809 984 Z" />
      </clipPath>
      <clipPath clipPathUnits="userSpaceOnUse" id="clipPath112">
        <path d="M208 1192 L1008 1192 L1008 1219 L208 1219 L208 1192 Z" />
      </clipPath>
      <clipPath clipPathUnits="userSpaceOnUse" id="clipPath113">
        <path d="M236 1210 L248 1210 L248 1221 L236 1221 L236 1210 Z" />
      </clipPath>
      <clipPath clipPathUnits="userSpaceOnUse" id="clipPath114">
        <path d="M531 1282 L685 1282 L685 1309 L531 1309 L531 1282 Z" />
      </clipPath>
      <clipPath clipPathUnits="userSpaceOnUse" id="clipPath115">
        <path d="M236 1300 L248 1300 L248 1311 L236 1311 L236 1300 Z" />
      </clipPath>
      <clipPath clipPathUnits="userSpaceOnUse" id="clipPath116">
        <path d="M497 1372 L720 1372 L720 1399 L497 1399 L497 1372 Z" />
      </clipPath>
      <clipPath clipPathUnits="userSpaceOnUse" id="clipPath117">
        <path d="M236 1390 L248 1390 L248 1401 L236 1401 L236 1390 Z" />
      </clipPath>
      <clipPath clipPathUnits="userSpaceOnUse" id="clipPath118">
        <path d="M391 1237 L826 1237 L826 1264 L391 1264 L391 1237 Z" />
      </clipPath>
      <clipPath clipPathUnits="userSpaceOnUse" id="clipPath119">
        <path d="M966 1255 L978 1255 L978 1266 L966 1266 L966 1255 Z" />
      </clipPath>
      <clipPath clipPathUnits="userSpaceOnUse" id="clipPath120">
        <path d="M452 1327 L765 1327 L765 1354 L452 1354 L452 1327 Z" />
      </clipPath>
      <clipPath clipPathUnits="userSpaceOnUse" id="clipPath121">
        <path d="M966 1345 L978 1345 L978 1356 L966 1356 L966 1345 Z" />
      </clipPath>
    </defs>
    <g font-size="19" fill="rgb(238,201,142)" font-family="'Lucida Sans'" stroke-linejoin="round" stroke="rgb(238,201,142)" stroke-width="0" stroke-miterlimit="0">
      <rect x="203" y="10" clip-path="url(#clipPath1)" width="70" height="30" stroke="none" />
    </g>
    <g stroke-width="0.1" font-size="19" font-family="'Lucida Sans'" stroke-linecap="butt">
      <rect x="203" y="10" clip-path="url(#clipPath1)" fill="none" width="69" height="29" />
      <text xml:space="preserve" x="204" y="33" clip-path="url(#clipPath2)" stroke="none">System</text>
      <line clip-path="url(#clipPath3)" fill="none" x1="237" x2="237" y1="40" y2="1485" stroke-dasharray="10,10" stroke-width="1.1" />
    </g>
    <g stroke-linecap="butt" font-size="19" fill="rgb(255,245,181)" font-family="'Lucida Sans'" stroke-dasharray="10,10" stroke="rgb(255,245,181)" stroke-width="1.1">
      <rect x="303" y="10" clip-path="url(#clipPath4)" width="120" height="50" stroke="none" />
    </g>
    <g stroke-width="0.1" font-size="19" font-family="'Lucida Sans'" stroke-linecap="butt">
      <rect x="303" y="10" clip-path="url(#clipPath4)" fill="none" width="119" height="49" />
      <text xml:space="preserve" x="313" y="21" clip-path="url(#clipPath5)" stroke="none">theCreator</text>
      <text xml:space="preserve" x="357" y="43" clip-path="url(#clipPath6)" stroke="none">: </text>
      <text xml:space="preserve" x="307" y="65" clip-path="url(#clipPath5)" stroke="none">actMsrCre...</text>
      <line clip-path="url(#clipPath7)" fill="none" x1="362" x2="362" y1="60" y2="1485" stroke-dasharray="10,10" stroke-width="1.1" />
    </g>
    <g stroke-linecap="butt" font-size="19" fill="rgb(255,245,181)" font-family="'Lucida Sans'" stroke-dasharray="10,10" stroke="rgb(255,245,181)" stroke-width="1.1">
      <rect x="453" y="10" clip-path="url(#clipPath8)" width="119" height="50" stroke="none" />
    </g>
    <g stroke-width="0.1" font-size="19" font-family="'Lucida Sans'" stroke-linecap="butt">
      <rect x="453" y="10" clip-path="url(#clipPath8)" fill="none" width="118" height="49" />
      <text xml:space="preserve" x="471" y="21" clip-path="url(#clipPath9)" stroke="none">theClock</text>
      <text xml:space="preserve" x="506" y="43" clip-path="url(#clipPath10)" stroke="none">: </text>
      <text xml:space="preserve" x="455" y="65" clip-path="url(#clipPath11)" stroke="none">actActivator</text>
      <line clip-path="url(#clipPath12)" fill="none" x1="511" x2="511" y1="60" y2="1485" stroke-dasharray="10,10" stroke-width="1.1" />
    </g>
    <g stroke-linecap="butt" fill="rgb(39,76,114)" font-family="'Segoe UI'" stroke-dasharray="10,10" stroke="rgb(39,76,114)" stroke-width="1.1">
      <rect x="502" y="630" clip-path="url(#clipPath13)" width="20" height="40" stroke="none" />
      <rect x="502" y="630" clip-path="url(#clipPath13)" fill="none" width="19" stroke-dasharray="none" height="39" stroke-width="0.1" />
    </g>
    <g stroke-width="0.1" font-size="19" font-family="'Segoe UI'" stroke-linecap="butt">
      <text xml:space="preserve" x="523" y="651" clip-path="url(#clipPath14)" stroke="none">out05</text>
      <rect x="502" y="1050" clip-path="url(#clipPath15)" fill="rgb(39,76,114)" width="20" height="40" stroke="none" />
      <rect x="502" y="1050" clip-path="url(#clipPath15)" fill="none" width="19" height="39" stroke="rgb(39,76,114)" />
      <text xml:space="preserve" x="523" y="1071" clip-path="url(#clipPath16)" stroke="none">out09</text>
      <rect x="602" y="10" clip-path="url(#clipPath17)" fill="rgb(255,245,181)" width="130" height="50" stroke="none" />
      <rect x="602" y="10" clip-path="url(#clipPath17)" fill="none" width="129" height="49" />
      <text x="651" y="21" clip-path="url(#clipPath18)" font-family="'Lucida Sans'" stroke="none" xml:space="preserve">bill</text>
      <text x="660" y="43" clip-path="url(#clipPath18)" font-family="'Lucida Sans'" stroke="none" xml:space="preserve">: </text>
      <text x="605" y="65" clip-path="url(#clipPath19)" font-family="'Lucida Sans'" stroke="none" xml:space="preserve">actAdminis...</text>
      <line clip-path="url(#clipPath20)" fill="none" x1="666" x2="666" y1="60" y2="1485" stroke-dasharray="10,10" stroke-width="1.1" />
    </g>
    <g stroke-linecap="butt" font-size="19" fill="rgb(255,245,181)" font-family="'Lucida Sans'" stroke-dasharray="10,10" stroke="rgb(255,245,181)" stroke-width="1.1">
      <rect x="762" y="10" clip-path="url(#clipPath21)" width="132" height="50" stroke="none" />
    </g>
    <g stroke-width="0.1" font-size="19" font-family="'Lucida Sans'" stroke-linecap="butt">
      <rect x="762" y="10" clip-path="url(#clipPath21)" fill="none" width="131" height="49" />
      <text xml:space="preserve" x="801" y="21" clip-path="url(#clipPath22)" stroke="none">tango</text>
      <text xml:space="preserve" x="822" y="43" clip-path="url(#clipPath23)" stroke="none">: </text>
      <text xml:space="preserve" x="771" y="65" clip-path="url(#clipPath22)" stroke="none">actComCo...</text>
      <line clip-path="url(#clipPath24)" fill="none" x1="827" x2="827" y1="60" y2="1485" stroke-dasharray="10,10" stroke-width="1.1" />
    </g>
    <g stroke-linecap="butt" fill="rgb(39,76,114)" font-family="'Segoe UI'" stroke-dasharray="10,10" stroke="rgb(39,76,114)" stroke-width="1.1">
      <rect x="818" y="810" clip-path="url(#clipPath25)" width="20" height="40" stroke="none" />
      <rect x="818" y="810" clip-path="url(#clipPath25)" fill="none" width="19" stroke-dasharray="none" height="39" stroke-width="0.1" />
    </g>
    <g stroke-width="0.1" font-size="19" font-family="'Segoe UI'" stroke-linecap="butt">
      <text xml:space="preserve" x="839" y="831" clip-path="url(#clipPath26)" stroke="none">out07</text>
      <rect x="818" y="510" clip-path="url(#clipPath27)" fill="rgb(194,239,255)" width="20" height="40" stroke="none" />
      <rect x="818" y="510" clip-path="url(#clipPath27)" fill="none" width="19" height="39" stroke="rgb(194,239,255)" />
      <text xml:space="preserve" x="839" y="531" clip-path="url(#clipPath28)" stroke="none">in04</text>
      <rect x="818" y="870" clip-path="url(#clipPath29)" fill="rgb(194,239,255)" width="20" height="40" stroke="none" />
      <rect x="818" y="870" clip-path="url(#clipPath29)" fill="none" width="19" height="39" stroke="rgb(194,239,255)" />
      <text xml:space="preserve" x="839" y="891" clip-path="url(#clipPath30)" stroke="none">in07</text>
      <rect x="818" y="930" clip-path="url(#clipPath31)" fill="rgb(39,76,114)" width="20" height="40" stroke="none" />
      <rect x="818" y="930" clip-path="url(#clipPath31)" fill="none" width="19" height="39" stroke="rgb(39,76,114)" />
      <text xml:space="preserve" x="839" y="951" clip-path="url(#clipPath32)" stroke="none">out08</text>
      <rect x="818" y="990" clip-path="url(#clipPath33)" fill="rgb(194,239,255)" width="20" height="40" stroke="none" />
      <rect x="818" y="990" clip-path="url(#clipPath33)" fill="none" width="19" height="39" stroke="rgb(194,239,255)" />
      <text xml:space="preserve" x="839" y="1011" clip-path="url(#clipPath34)" stroke="none">in08</text>
      <rect x="924" y="10" clip-path="url(#clipPath35)" fill="rgb(255,245,181)" width="122" height="50" stroke="none" />
      <rect x="924" y="10" clip-path="url(#clipPath35)" fill="none" width="121" height="49" />
      <text x="960" y="21" clip-path="url(#clipPath36)" font-family="'Lucida Sans'" stroke="none" xml:space="preserve">steve</text>
      <text x="978" y="43" clip-path="url(#clipPath37)" font-family="'Lucida Sans'" stroke="none" xml:space="preserve">: </text>
      <text x="924" y="65" clip-path="url(#clipPath36)" font-family="'Lucida Sans'" stroke="none" xml:space="preserve">actCoordin...</text>
      <line clip-path="url(#clipPath38)" fill="none" x1="984" x2="984" y1="60" y2="1485" stroke-dasharray="10,10" stroke-width="1.1" />
    </g>
    <g stroke-linecap="butt" font-size="19" fill="rgb(39,76,114)" font-family="'Lucida Sans'" stroke-dasharray="10,10" stroke="rgb(39,76,114)" stroke-width="1.1">
      <rect x="975" y="90" clip-path="url(#clipPath39)" width="20" height="40" stroke="none" />
      <rect x="975" y="90" clip-path="url(#clipPath39)" fill="none" width="19" stroke-dasharray="none" height="39" stroke-width="0.1" />
    </g>
    <g stroke-width="0.1" font-size="19" font-family="'Lucida Sans'" stroke-linecap="butt">
      <text xml:space="preserve" x="996" y="109" clip-path="url(#clipPath40)" stroke="none">out01</text>
      <rect x="975" y="210" clip-path="url(#clipPath41)" fill="rgb(39,76,114)" width="20" height="40" stroke="none" />
      <rect x="975" y="210" clip-path="url(#clipPath41)" fill="none" width="19" height="39" stroke="rgb(39,76,114)" />
      <text xml:space="preserve" x="996" y="229" clip-path="url(#clipPath42)" stroke="none">out02</text>
      <rect x="975" y="330" clip-path="url(#clipPath43)" fill="rgb(39,76,114)" width="20" height="40" stroke="none" />
      <rect x="975" y="330" clip-path="url(#clipPath43)" fill="none" width="19" height="39" stroke="rgb(39,76,114)" />
      <text xml:space="preserve" x="996" y="349" clip-path="url(#clipPath44)" stroke="none">out03</text>
      <rect x="975" y="1110" clip-path="url(#clipPath45)" fill="rgb(39,76,114)" width="20" height="40" stroke="none" />
      <rect x="975" y="1110" clip-path="url(#clipPath45)" fill="none" width="19" height="39" stroke="rgb(39,76,114)" />
      <text xml:space="preserve" x="996" y="1129" clip-path="url(#clipPath46)" stroke="none">out10</text>
      <rect x="975" y="150" clip-path="url(#clipPath47)" fill="rgb(194,239,255)" width="20" height="40" stroke="none" />
      <rect x="975" y="150" clip-path="url(#clipPath47)" fill="none" width="19" height="39" stroke="rgb(194,239,255)" />
      <text xml:space="preserve" x="996" y="169" clip-path="url(#clipPath48)" stroke="none">in01</text>
      <rect x="975" y="270" clip-path="url(#clipPath49)" fill="rgb(194,239,255)" width="20" height="40" stroke="none" />
      <rect x="975" y="270" clip-path="url(#clipPath49)" fill="none" width="19" height="39" stroke="rgb(194,239,255)" />
      <text xml:space="preserve" x="996" y="289" clip-path="url(#clipPath50)" stroke="none">in02</text>
      <rect x="975" y="1170" clip-path="url(#clipPath51)" fill="rgb(194,239,255)" width="20" height="40" stroke="none" />
      <rect x="975" y="1170" clip-path="url(#clipPath51)" fill="none" width="19" height="39" stroke="rgb(194,239,255)" />
      <text xml:space="preserve" x="996" y="1189" clip-path="url(#clipPath52)" stroke="none">in09</text>
    </g>
    <g fill="rgb(39,76,114)" stroke-width="0.1" font-family="'Segoe UI'" stroke-linecap="butt" stroke="rgb(39,76,114)">
      <rect x="975" y="450" clip-path="url(#clipPath53)" width="20" height="40" stroke="none" />
      <rect x="975" y="450" clip-path="url(#clipPath53)" fill="none" width="19" height="39" />
      <text x="996" font-size="19" y="471" clip-path="url(#clipPath54)" fill="black" stroke="none" xml:space="preserve">out04</text>
      <rect x="975" y="690" clip-path="url(#clipPath55)" width="20" height="40" stroke="none" />
      <rect x="975" y="690" clip-path="url(#clipPath55)" fill="none" width="19" height="39" />
      <text x="996" font-size="19" y="711" clip-path="url(#clipPath56)" fill="black" stroke="none" xml:space="preserve">out06</text>
      <rect x="975" y="390" clip-path="url(#clipPath57)" fill="rgb(194,239,255)" width="20" height="40" stroke="none" />
      <rect x="975" y="390" clip-path="url(#clipPath57)" fill="none" width="19" height="39" stroke="rgb(194,239,255)" />
      <text x="996" font-size="19" y="411" clip-path="url(#clipPath58)" fill="black" stroke="none" xml:space="preserve">in03</text>
      <rect x="975" y="570" clip-path="url(#clipPath59)" fill="rgb(194,239,255)" width="20" height="40" stroke="none" />
      <rect x="975" y="570" clip-path="url(#clipPath59)" fill="none" width="19" height="39" stroke="rgb(194,239,255)" />
      <text x="996" font-size="19" y="591" clip-path="url(#clipPath60)" fill="black" stroke="none" xml:space="preserve">in05</text>
      <rect x="975" y="750" clip-path="url(#clipPath61)" fill="rgb(194,239,255)" width="20" height="40" stroke="none" />
      <rect x="975" y="750" clip-path="url(#clipPath61)" fill="none" width="19" height="39" stroke="rgb(194,239,255)" />
      <text x="996" font-size="19" y="771" clip-path="url(#clipPath62)" fill="black" stroke="none" xml:space="preserve">in06</text>
      <rect x="975" y="1215" clip-path="url(#clipPath63)" width="20" height="40" stroke="none" />
      <rect x="975" y="1215" clip-path="url(#clipPath63)" fill="none" width="19" height="39" />
      <text x="996" font-size="19" y="1236" clip-path="url(#clipPath64)" fill="black" stroke="none" xml:space="preserve">out11</text>
      <rect x="975" y="1305" clip-path="url(#clipPath65)" width="20" height="40" stroke="none" />
      <rect x="975" y="1305" clip-path="url(#clipPath65)" fill="none" width="19" height="39" />
      <text x="996" font-size="19" y="1326" clip-path="url(#clipPath66)" fill="black" stroke="none" xml:space="preserve">out12</text>
      <rect x="975" y="1395" clip-path="url(#clipPath67)" width="20" height="40" stroke="none" />
      <rect x="975" y="1395" clip-path="url(#clipPath67)" fill="none" width="19" height="39" />
      <text x="996" font-size="19" y="1416" clip-path="url(#clipPath68)" fill="black" stroke="none" xml:space="preserve">out13</text>
      <rect x="975" y="1260" clip-path="url(#clipPath69)" fill="rgb(194,239,255)" width="20" height="40" stroke="none" />
      <rect x="975" y="1260" clip-path="url(#clipPath69)" fill="none" width="19" height="39" stroke="rgb(194,239,255)" />
      <text x="996" font-size="19" y="1281" clip-path="url(#clipPath70)" fill="black" stroke="none" xml:space="preserve">in10</text>
      <rect x="975" y="1350" clip-path="url(#clipPath71)" fill="rgb(194,239,255)" width="20" height="40" stroke="none" />
      <rect x="975" y="1350" clip-path="url(#clipPath71)" fill="none" width="19" height="39" stroke="rgb(194,239,255)" />
      <text x="996" font-size="19" y="1371" clip-path="url(#clipPath72)" fill="black" stroke="none" xml:space="preserve">in11</text>
    </g>
    <g stroke-linecap="butt" font-size="19" fill="rgb(136,136,136)" font-family="'Lucida Sans'" stroke="rgb(136,136,136)" stroke-width="2.1">
      <line clip-path="url(#clipPath73)" fill="none" x1="975" x2="238" y1="89" y2="89" />
      <text x="227" y="82" clip-path="url(#clipPath74)" fill="black" stroke="none" xml:space="preserve">oeLogin("steve","pwdMessirExcalibur2017")</text>
      <line clip-path="url(#clipPath75)" fill="none" x1="245" x2="238" y1="86" y2="89" />
      <line clip-path="url(#clipPath75)" fill="none" x1="238" x2="245" y1="89" y2="92" />
      <line clip-path="url(#clipPath73)" fill="none" x1="975" x2="238" y1="209" y2="209" />
      <text x="292" y="202" clip-path="url(#clipPath76)" fill="black" stroke="none" xml:space="preserve">oeSMS("241312")</text>
      <line clip-path="url(#clipPath77)" fill="none" x1="245" x2="238" y1="206" y2="209" />
      <line clip-path="url(#clipPath77)" fill="none" x1="238" x2="245" y1="209" y2="212" />
      <line clip-path="url(#clipPath73)" fill="none" x1="975" x2="238" y1="329" y2="329" />
      <text x="244" y="321" clip-path="url(#clipPath78)" fill="black" stroke="none" xml:space="preserve">oeGetCrisisSet("pending")</text>
      <line clip-path="url(#clipPath79)" fill="none" x1="245" x2="238" y1="326" y2="329" />
      <line clip-path="url(#clipPath79)" fill="none" x1="238" x2="245" y1="329" y2="332" />
      <line clip-path="url(#clipPath73)" fill="none" x1="975" x2="238" y1="1109" y2="1109" />
      <text x="203" y="1102" clip-path="url(#clipPath80)" fill="black" stroke="none" xml:space="preserve">oeSetCrisisStatus("1","solved")</text>
      <line clip-path="url(#clipPath81)" fill="none" x1="245" x2="238" y1="1106" y2="1109" />
      <line clip-path="url(#clipPath81)" fill="none" x1="238" x2="245" y1="1109" y2="1112" />
      <line clip-path="url(#clipPath73)" fill="none" x1="975" x2="238" y1="149" y2="149" stroke-dasharray="5,5" />
      <text x="78" y="143" clip-path="url(#clipPath82)" fill="black" stroke-dasharray="5,5" stroke="none" xml:space="preserve">ieMessage(Your login and password are correct. Sms code has been sent)</text>
      <line clip-path="url(#clipPath83)" fill="none" x1="968" x2="975" y1="152" y2="149" />
      <line clip-path="url(#clipPath83)" fill="none" x1="975" x2="968" y1="149" y2="146" />
      <line clip-path="url(#clipPath73)" fill="none" x1="975" x2="238" y1="269" y2="269" stroke-dasharray="5,5" />
      <text x="205" y="264" clip-path="url(#clipPath84)" fill="black" stroke-dasharray="5,5" stroke="none" xml:space="preserve">ieMessage(Your are logged in ! Wellcome ...)</text>
      <line clip-path="url(#clipPath85)" fill="none" x1="968" x2="975" y1="272" y2="269" />
      <line clip-path="url(#clipPath85)" fill="none" x1="975" x2="968" y1="269" y2="266" />
      <line clip-path="url(#clipPath73)" fill="none" x1="975" x2="238" y1="1169" y2="1169" stroke-dasharray="5,5" />
      <text x="189" y="1161" clip-path="url(#clipPath86)" fill="black" stroke-dasharray="5,5" stroke="none" xml:space="preserve">ieMessage(The crisis status has been updated !)</text>
      <line clip-path="url(#clipPath87)" fill="none" x1="968" x2="975" y1="1172" y2="1169" />
      <line clip-path="url(#clipPath87)" fill="none" x1="975" x2="968" y1="1169" y2="1166" />
      <line clip-path="url(#clipPath73)" fill="none" x1="975" x2="238" y1="449" y2="449" />
      <text x="509" y="448" clip-path="url(#clipPath88)" fill="black" font-family="'Segoe UI'" stroke="none" xml:space="preserve">oeSetCrisisHandler("1")</text>
      <line clip-path="url(#clipPath89)" fill="none" x1="245" x2="238" y1="446" y2="449" />
      <line clip-path="url(#clipPath89)" fill="none" x1="238" x2="245" y1="449" y2="452" />
      <line clip-path="url(#clipPath73)" fill="none" x1="502" x2="238" y1="629" y2="629" />
      <text x="224" y="628" clip-path="url(#clipPath90)" fill="black" font-family="'Segoe UI'" stroke="none" xml:space="preserve">oeSetClock("2017:11:26 - 10:45:00")</text>
      <line clip-path="url(#clipPath91)" fill="none" x1="245" x2="238" y1="626" y2="629" />
      <line clip-path="url(#clipPath91)" fill="none" x1="238" x2="245" y1="629" y2="632" />
      <line clip-path="url(#clipPath73)" fill="none" x1="975" x2="238" y1="689" y2="689" />
      <text x="524" y="688" clip-path="url(#clipPath92)" fill="black" font-family="'Segoe UI'" stroke="none" xml:space="preserve">oeValidateAlert("1")</text>
      <line clip-path="url(#clipPath93)" fill="none" x1="245" x2="238" y1="686" y2="689" />
      <line clip-path="url(#clipPath93)" fill="none" x1="238" x2="245" y1="689" y2="692" />
      <line clip-path="url(#clipPath73)" fill="none" x1="818" x2="238" y1="809" y2="809" />
      <text x="24" y="808" clip-path="url(#clipPath94)" fill="black" font-family="'Segoe UI'" stroke="none" xml:space="preserve">oeAlert("witness","2017:11:26","10:20:00","+3524666445000","49.627095:6.160251","A car crash just happened.","medium")</text>
      <line clip-path="url(#clipPath95)" fill="none" x1="245" x2="238" y1="806" y2="809" />
      <line clip-path="url(#clipPath95)" fill="none" x1="238" x2="245" y1="809" y2="812" />
      <line clip-path="url(#clipPath73)" fill="none" x1="975" x2="238" y1="389" y2="389" stroke-dasharray="5,5" />
    </g>
    <g stroke-width="2.1" font-size="19" stroke-dasharray="5,5" font-family="'Segoe UI'" stroke-linecap="butt">
      <text xml:space="preserve" x="453" y="388" clip-path="url(#clipPath96)" stroke="none">ieSendACrisis(crisis with ID 1 details)</text>
      <line clip-path="url(#clipPath97)" fill="none" x1="968" x2="975" y1="392" y2="389" stroke-dasharray="none" stroke="rgb(136,136,136)" />
      <line clip-path="url(#clipPath97)" fill="none" x1="975" x2="968" y1="389" y2="386" stroke-dasharray="none" stroke="rgb(136,136,136)" />
      <line clip-path="url(#clipPath73)" fill="none" x1="818" x2="238" y1="509" y2="509" stroke="rgb(136,136,136)" />
      <text xml:space="preserve" x="165" y="508" clip-path="url(#clipPath98)" stroke="none">ieSmsSend(+3524666445252,The handling of your alert by our services is in progress !)</text>
      <line clip-path="url(#clipPath99)" fill="none" x1="811" x2="818" y1="512" y2="509" stroke-dasharray="none" stroke="rgb(136,136,136)" />
      <line clip-path="url(#clipPath99)" fill="none" x1="818" x2="811" y1="509" y2="506" stroke-dasharray="none" stroke="rgb(136,136,136)" />
      <line clip-path="url(#clipPath73)" fill="none" x1="975" x2="238" y1="569" y2="569" stroke="rgb(136,136,136)" />
      <text xml:space="preserve" x="359" y="568" clip-path="url(#clipPath100)" stroke="none">ieMessage(You are now considered as handling the crisis !)</text>
      <line clip-path="url(#clipPath101)" fill="none" x1="968" x2="975" y1="572" y2="569" stroke-dasharray="none" stroke="rgb(136,136,136)" />
      <line clip-path="url(#clipPath101)" fill="none" x1="975" x2="968" y1="569" y2="566" stroke-dasharray="none" stroke="rgb(136,136,136)" />
      <line clip-path="url(#clipPath73)" fill="none" x1="975" x2="238" y1="749" y2="749" stroke="rgb(136,136,136)" />
      <text xml:space="preserve" x="410" y="748" clip-path="url(#clipPath102)" stroke="none">ieMessage(The Alert is now declared as valid !)</text>
      <line clip-path="url(#clipPath103)" fill="none" x1="968" x2="975" y1="752" y2="749" stroke-dasharray="none" stroke="rgb(136,136,136)" />
      <line clip-path="url(#clipPath103)" fill="none" x1="975" x2="968" y1="749" y2="746" stroke-dasharray="none" stroke="rgb(136,136,136)" />
      <line clip-path="url(#clipPath73)" fill="none" x1="818" x2="238" y1="869" y2="869" stroke="rgb(136,136,136)" />
      <text xml:space="preserve" x="103" y="868" clip-path="url(#clipPath104)" stroke="none">ieSmsSend(+3524666445000,Your alert has been registered. We will handle it and keep you informed)</text>
      <line clip-path="url(#clipPath105)" fill="none" x1="811" x2="818" y1="872" y2="869" stroke-dasharray="none" stroke="rgb(136,136,136)" />
      <line clip-path="url(#clipPath105)" fill="none" x1="818" x2="811" y1="869" y2="866" stroke-dasharray="none" stroke="rgb(136,136,136)" />
      <line clip-path="url(#clipPath73)" fill="none" x1="818" x2="238" y1="929" y2="929" stroke-dasharray="none" stroke="rgb(136,136,136)" />
      <text x="59" y="928" clip-path="url(#clipPath106)" stroke-dasharray="none" stroke="none" xml:space="preserve">oeAlert("witness","2017:11:26","10:20:00","+3524666445112","69.33143:65.160251","A car hit 2 pedestrians.","low")</text>
      <line clip-path="url(#clipPath107)" fill="none" x1="245" x2="238" y1="926" y2="929" stroke-dasharray="none" stroke="rgb(136,136,136)" />
      <line clip-path="url(#clipPath107)" fill="none" x1="238" x2="245" y1="929" y2="932" stroke-dasharray="none" stroke="rgb(136,136,136)" />
      <line clip-path="url(#clipPath73)" fill="none" x1="502" x2="238" y1="1049" y2="1049" stroke-dasharray="none" stroke="rgb(136,136,136)" />
      <text x="224" y="1048" clip-path="url(#clipPath108)" stroke-dasharray="none" stroke="none" xml:space="preserve">oeSetClock("2017:11:26 - 12:45:00")</text>
      <line clip-path="url(#clipPath109)" fill="none" x1="245" x2="238" y1="1046" y2="1049" stroke-dasharray="none" stroke="rgb(136,136,136)" />
      <line clip-path="url(#clipPath109)" fill="none" x1="238" x2="245" y1="1049" y2="1052" stroke-dasharray="none" stroke="rgb(136,136,136)" />
      <line clip-path="url(#clipPath73)" fill="none" x1="818" x2="238" y1="989" y2="989" stroke="rgb(136,136,136)" />
      <text xml:space="preserve" x="103" y="988" clip-path="url(#clipPath110)" stroke="none">ieSmsSend(+3524666445112,Your alert has been registered. We will handle it and keep you informed)</text>
      <line clip-path="url(#clipPath111)" fill="none" x1="811" x2="818" y1="992" y2="989" stroke-dasharray="none" stroke="rgb(136,136,136)" />
      <line clip-path="url(#clipPath111)" fill="none" x1="818" x2="811" y1="989" y2="986" stroke-dasharray="none" stroke="rgb(136,136,136)" />
      <line clip-path="url(#clipPath73)" fill="none" x1="975" x2="238" y1="1215" y2="1215" stroke-dasharray="none" stroke="rgb(136,136,136)" />
      <text x="209" y="1214" clip-path="url(#clipPath112)" stroke-dasharray="none" stroke="none" xml:space="preserve">oeReportOnCrisis("1","3 victims sent to hospital, 2 cars evacuated and 4 rescue unit mobilized")</text>
      <line clip-path="url(#clipPath113)" fill="none" x1="245" x2="238" y1="1212" y2="1215" stroke-dasharray="none" stroke="rgb(136,136,136)" />
      <line clip-path="url(#clipPath113)" fill="none" x1="238" x2="245" y1="1215" y2="1218" stroke-dasharray="none" stroke="rgb(136,136,136)" />
      <line clip-path="url(#clipPath73)" fill="none" x1="975" x2="238" y1="1305" y2="1305" stroke-dasharray="none" stroke="rgb(136,136,136)" />
      <text x="532" y="1304" clip-path="url(#clipPath114)" stroke-dasharray="none" stroke="none" xml:space="preserve">oeCloseCrisis("1")</text>
      <line clip-path="url(#clipPath115)" fill="none" x1="245" x2="238" y1="1302" y2="1305" stroke-dasharray="none" stroke="rgb(136,136,136)" />
      <line clip-path="url(#clipPath115)" fill="none" x1="238" x2="245" y1="1305" y2="1308" stroke-dasharray="none" stroke="rgb(136,136,136)" />
      <line clip-path="url(#clipPath73)" fill="none" x1="975" x2="238" y1="1395" y2="1395" stroke-dasharray="none" stroke="rgb(136,136,136)" />
      <text x="498" y="1394" clip-path="url(#clipPath116)" stroke-dasharray="none" stroke="none" xml:space="preserve">oeGetCrisisSet("pending")</text>
      <line clip-path="url(#clipPath117)" fill="none" x1="245" x2="238" y1="1392" y2="1395" stroke-dasharray="none" stroke="rgb(136,136,136)" />
      <line clip-path="url(#clipPath117)" fill="none" x1="238" x2="245" y1="1395" y2="1398" stroke-dasharray="none" stroke="rgb(136,136,136)" />
      <line clip-path="url(#clipPath73)" fill="none" x1="975" x2="238" y1="1260" y2="1260" stroke="rgb(136,136,136)" />
      <text xml:space="preserve" x="392" y="1259" clip-path="url(#clipPath118)" stroke="none">ieMessage(The crisis comment has been updated !)</text>
      <line clip-path="url(#clipPath119)" fill="none" x1="968" x2="975" y1="1263" y2="1260" stroke-dasharray="none" stroke="rgb(136,136,136)" />
      <line clip-path="url(#clipPath119)" fill="none" x1="975" x2="968" y1="1260" y2="1257" stroke-dasharray="none" stroke="rgb(136,136,136)" />
      <line clip-path="url(#clipPath73)" fill="none" x1="975" x2="238" y1="1350" y2="1350" stroke="rgb(136,136,136)" />
      <text xml:space="preserve" x="453" y="1349" clip-path="url(#clipPath120)" stroke="none">ieMessage(The crisis is now closed !)</text>
      <line clip-path="url(#clipPath121)" fill="none" x1="968" x2="975" y1="1353" y2="1350" stroke-dasharray="none" stroke="rgb(136,136,136)" />
      <line clip-path="url(#clipPath121)" fill="none" x1="975" x2="968" y1="1350" y2="1347" stroke-dasharray="none" stroke="rgb(136,136,136)" />
    </g>
  </g>
</svg>

