<?xml version="1.0" encoding="UTF-8"?>
<svg xmlns="http://www.w3.org/2000/svg" xmlns:xlink="http://www.w3.org/1999/xlink" stroke-dasharray="none" shape-rendering="auto" font-family="'Dialog'" width="1057" text-rendering="auto" fill-opacity="1" contentScriptType="text/ecmascript" color-interpolation="auto" color-rendering="auto" preserveAspectRatio="xMidYMid meet" font-size="12" viewBox="0 0 1057 1600" fill="black" stroke="black" image-rendering="auto" stroke-miterlimit="10" zoomAndPan="magnify" version="1.0" stroke-linecap="square" stroke-linejoin="miter" contentStyleType="text/css" font-style="normal" height="1600" stroke-width="1" stroke-dashoffset="0" font-weight="normal" stroke-opacity="1">
  <!--Generated by the Batik Graphics2D SVG Generator-->
  <defs id="genericDefs" />
  <g>
    <defs id="defs1">
      <clipPath clipPathUnits="userSpaceOnUse" id="clipPath1">
        <path d="M232 9 L304 9 L304 41 L232 41 L232 9 Z" />
      </clipPath>
      <clipPath clipPathUnits="userSpaceOnUse" id="clipPath2">
        <path d="M232 9 L309 9 L309 41 L232 41 L232 9 Z" />
      </clipPath>
      <clipPath clipPathUnits="userSpaceOnUse" id="clipPath3">
        <path d="M262 39 L274 39 L274 1591 L262 1591 L262 39 Z" />
      </clipPath>
      <clipPath clipPathUnits="userSpaceOnUse" id="clipPath4">
        <path d="M332 9 L454 9 L454 61 L332 61 L332 9 Z" />
      </clipPath>
      <clipPath clipPathUnits="userSpaceOnUse" id="clipPath5">
        <path d="M332 9 L458 9 L458 61 L332 61 L332 9 Z" />
      </clipPath>
      <clipPath clipPathUnits="userSpaceOnUse" id="clipPath6">
        <path d="M332 9 L457 9 L457 61 L332 61 L332 9 Z" />
      </clipPath>
      <clipPath clipPathUnits="userSpaceOnUse" id="clipPath7">
        <path d="M387 59 L399 59 L399 1591 L387 1591 L387 59 Z" />
      </clipPath>
      <clipPath clipPathUnits="userSpaceOnUse" id="clipPath8">
        <path d="M462 9 L583 9 L583 61 L462 61 L462 9 Z" />
      </clipPath>
      <clipPath clipPathUnits="userSpaceOnUse" id="clipPath9">
        <path d="M462 9 L588 9 L588 61 L462 61 L462 9 Z" />
      </clipPath>
      <clipPath clipPathUnits="userSpaceOnUse" id="clipPath10">
        <path d="M462 9 L586 9 L586 61 L462 61 L462 9 Z" />
      </clipPath>
      <clipPath clipPathUnits="userSpaceOnUse" id="clipPath11">
        <path d="M462 9 L587 9 L587 61 L462 61 L462 9 Z" />
      </clipPath>
      <clipPath clipPathUnits="userSpaceOnUse" id="clipPath12">
        <path d="M516 59 L528 59 L528 1591 L516 1591 L516 59 Z" />
      </clipPath>
      <clipPath clipPathUnits="userSpaceOnUse" id="clipPath13">
        <path d="M511 644 L533 644 L533 686 L511 686 L511 644 Z" />
      </clipPath>
      <clipPath clipPathUnits="userSpaceOnUse" id="clipPath14">
        <path d="M532 644 L586 644 L586 671 L532 671 L532 644 Z" />
      </clipPath>
      <clipPath clipPathUnits="userSpaceOnUse" id="clipPath15">
        <path d="M511 1094 L533 1094 L533 1136 L511 1136 L511 1094 Z" />
      </clipPath>
      <clipPath clipPathUnits="userSpaceOnUse" id="clipPath16">
        <path d="M532 1094 L586 1094 L586 1121 L532 1121 L532 1094 Z" />
      </clipPath>
      <clipPath clipPathUnits="userSpaceOnUse" id="clipPath17">
        <path d="M591 9 L723 9 L723 61 L591 61 L591 9 Z" />
      </clipPath>
      <clipPath clipPathUnits="userSpaceOnUse" id="clipPath18">
        <path d="M591 9 L726 9 L726 61 L591 61 L591 9 Z" />
      </clipPath>
      <clipPath clipPathUnits="userSpaceOnUse" id="clipPath19">
        <path d="M591 9 L727 9 L727 61 L591 61 L591 9 Z" />
      </clipPath>
      <clipPath clipPathUnits="userSpaceOnUse" id="clipPath20">
        <path d="M651 59 L663 59 L663 1591 L651 1591 L651 59 Z" />
      </clipPath>
      <clipPath clipPathUnits="userSpaceOnUse" id="clipPath21">
        <path d="M731 9 L865 9 L865 61 L731 61 L731 9 Z" />
      </clipPath>
      <clipPath clipPathUnits="userSpaceOnUse" id="clipPath22">
        <path d="M731 9 L870 9 L870 61 L731 61 L731 9 Z" />
      </clipPath>
      <clipPath clipPathUnits="userSpaceOnUse" id="clipPath23">
        <path d="M731 9 L868 9 L868 61 L731 61 L731 9 Z" />
      </clipPath>
      <clipPath clipPathUnits="userSpaceOnUse" id="clipPath24">
        <path d="M792 59 L804 59 L804 1591 L792 1591 L792 59 Z" />
      </clipPath>
      <clipPath clipPathUnits="userSpaceOnUse" id="clipPath25">
        <path d="M787 884 L809 884 L809 926 L787 926 L787 884 Z" />
      </clipPath>
      <clipPath clipPathUnits="userSpaceOnUse" id="clipPath26">
        <path d="M808 884 L862 884 L862 911 L808 911 L808 884 Z" />
      </clipPath>
      <clipPath clipPathUnits="userSpaceOnUse" id="clipPath27">
        <path d="M787 554 L809 554 L809 596 L787 596 L787 554 Z" />
      </clipPath>
      <clipPath clipPathUnits="userSpaceOnUse" id="clipPath28">
        <path d="M808 554 L850 554 L850 581 L808 581 L808 554 Z" />
      </clipPath>
      <clipPath clipPathUnits="userSpaceOnUse" id="clipPath29">
        <path d="M787 929 L809 929 L809 971 L787 971 L787 929 Z" />
      </clipPath>
      <clipPath clipPathUnits="userSpaceOnUse" id="clipPath30">
        <path d="M808 929 L850 929 L850 956 L808 956 L808 929 Z" />
      </clipPath>
      <clipPath clipPathUnits="userSpaceOnUse" id="clipPath31">
        <path d="M787 974 L809 974 L809 1016 L787 1016 L787 974 Z" />
      </clipPath>
      <clipPath clipPathUnits="userSpaceOnUse" id="clipPath32">
        <path d="M808 974 L862 974 L862 1001 L808 1001 L808 974 Z" />
      </clipPath>
      <clipPath clipPathUnits="userSpaceOnUse" id="clipPath33">
        <path d="M787 1019 L809 1019 L809 1061 L787 1061 L787 1019 Z" />
      </clipPath>
      <clipPath clipPathUnits="userSpaceOnUse" id="clipPath34">
        <path d="M808 1019 L850 1019 L850 1046 L808 1046 L808 1019 Z" />
      </clipPath>
      <clipPath clipPathUnits="userSpaceOnUse" id="clipPath35">
        <path d="M873 9 L997 9 L997 61 L873 61 L873 9 Z" />
      </clipPath>
      <clipPath clipPathUnits="userSpaceOnUse" id="clipPath36">
        <path d="M873 9 L1001 9 L1001 61 L873 61 L873 9 Z" />
      </clipPath>
      <clipPath clipPathUnits="userSpaceOnUse" id="clipPath37">
        <path d="M873 9 L1000 9 L1000 61 L873 61 L873 9 Z" />
      </clipPath>
      <clipPath clipPathUnits="userSpaceOnUse" id="clipPath38">
        <path d="M929 59 L941 59 L941 1591 L929 1591 L929 59 Z" />
      </clipPath>
      <clipPath clipPathUnits="userSpaceOnUse" id="clipPath39">
        <path d="M924 98 L946 98 L946 140 L924 140 L924 98 Z" />
      </clipPath>
      <clipPath clipPathUnits="userSpaceOnUse" id="clipPath40">
        <path d="M945 98 L1008 98 L1008 122 L945 122 L945 98 Z" />
      </clipPath>
      <clipPath clipPathUnits="userSpaceOnUse" id="clipPath41">
        <path d="M924 209 L946 209 L946 251 L924 251 L924 209 Z" />
      </clipPath>
      <clipPath clipPathUnits="userSpaceOnUse" id="clipPath42">
        <path d="M945 209 L1008 209 L1008 233 L945 233 L945 209 Z" />
      </clipPath>
      <clipPath clipPathUnits="userSpaceOnUse" id="clipPath43">
        <path d="M924 329 L946 329 L946 371 L924 371 L924 329 Z" />
      </clipPath>
      <clipPath clipPathUnits="userSpaceOnUse" id="clipPath44">
        <path d="M945 329 L1008 329 L1008 353 L945 353 L945 329 Z" />
      </clipPath>
      <clipPath clipPathUnits="userSpaceOnUse" id="clipPath45">
        <path d="M924 1214 L946 1214 L946 1256 L924 1256 L924 1214 Z" />
      </clipPath>
      <clipPath clipPathUnits="userSpaceOnUse" id="clipPath46">
        <path d="M945 1214 L1008 1214 L1008 1238 L945 1238 L945 1214 Z" />
      </clipPath>
      <clipPath clipPathUnits="userSpaceOnUse" id="clipPath47">
        <path d="M924 149 L946 149 L946 191 L924 191 L924 149 Z" />
      </clipPath>
      <clipPath clipPathUnits="userSpaceOnUse" id="clipPath48">
        <path d="M945 149 L994 149 L994 173 L945 173 L945 149 Z" />
      </clipPath>
      <clipPath clipPathUnits="userSpaceOnUse" id="clipPath49">
        <path d="M924 262 L946 262 L946 304 L924 304 L924 262 Z" />
      </clipPath>
      <clipPath clipPathUnits="userSpaceOnUse" id="clipPath50">
        <path d="M945 262 L994 262 L994 286 L945 286 L945 262 Z" />
      </clipPath>
      <clipPath clipPathUnits="userSpaceOnUse" id="clipPath51">
        <path d="M924 1274 L946 1274 L946 1316 L924 1316 L924 1274 Z" />
      </clipPath>
      <clipPath clipPathUnits="userSpaceOnUse" id="clipPath52">
        <path d="M945 1274 L994 1274 L994 1298 L945 1298 L945 1274 Z" />
      </clipPath>
      <clipPath clipPathUnits="userSpaceOnUse" id="clipPath53">
        <path d="M924 509 L946 509 L946 551 L924 551 L924 509 Z" />
      </clipPath>
      <clipPath clipPathUnits="userSpaceOnUse" id="clipPath54">
        <path d="M945 509 L999 509 L999 536 L945 536 L945 509 Z" />
      </clipPath>
      <clipPath clipPathUnits="userSpaceOnUse" id="clipPath55">
        <path d="M924 764 L946 764 L946 806 L924 806 L924 764 Z" />
      </clipPath>
      <clipPath clipPathUnits="userSpaceOnUse" id="clipPath56">
        <path d="M945 764 L999 764 L999 791 L945 791 L945 764 Z" />
      </clipPath>
      <clipPath clipPathUnits="userSpaceOnUse" id="clipPath57">
        <path d="M924 1319 L946 1319 L946 1361 L924 1361 L924 1319 Z" />
      </clipPath>
      <clipPath clipPathUnits="userSpaceOnUse" id="clipPath58">
        <path d="M945 1319 L999 1319 L999 1346 L945 1346 L945 1319 Z" />
      </clipPath>
      <clipPath clipPathUnits="userSpaceOnUse" id="clipPath59">
        <path d="M924 1409 L946 1409 L946 1451 L924 1451 L924 1409 Z" />
      </clipPath>
      <clipPath clipPathUnits="userSpaceOnUse" id="clipPath60">
        <path d="M945 1409 L999 1409 L999 1436 L945 1436 L945 1409 Z" />
      </clipPath>
      <clipPath clipPathUnits="userSpaceOnUse" id="clipPath61">
        <path d="M924 389 L946 389 L946 431 L924 431 L924 389 Z" />
      </clipPath>
      <clipPath clipPathUnits="userSpaceOnUse" id="clipPath62">
        <path d="M945 389 L987 389 L987 416 L945 416 L945 389 Z" />
      </clipPath>
      <clipPath clipPathUnits="userSpaceOnUse" id="clipPath63">
        <path d="M924 599 L946 599 L946 641 L924 641 L924 599 Z" />
      </clipPath>
      <clipPath clipPathUnits="userSpaceOnUse" id="clipPath64">
        <path d="M945 599 L987 599 L987 626 L945 626 L945 599 Z" />
      </clipPath>
      <clipPath clipPathUnits="userSpaceOnUse" id="clipPath65">
        <path d="M924 824 L946 824 L946 866 L924 866 L924 824 Z" />
      </clipPath>
      <clipPath clipPathUnits="userSpaceOnUse" id="clipPath66">
        <path d="M945 824 L987 824 L987 851 L945 851 L945 824 Z" />
      </clipPath>
      <clipPath clipPathUnits="userSpaceOnUse" id="clipPath67">
        <path d="M924 1364 L946 1364 L946 1406 L924 1406 L924 1364 Z" />
      </clipPath>
      <clipPath clipPathUnits="userSpaceOnUse" id="clipPath68">
        <path d="M945 1364 L987 1364 L987 1391 L945 1391 L945 1364 Z" />
      </clipPath>
      <clipPath clipPathUnits="userSpaceOnUse" id="clipPath69">
        <path d="M924 1499 L946 1499 L946 1541 L924 1541 L924 1499 Z" />
      </clipPath>
      <clipPath clipPathUnits="userSpaceOnUse" id="clipPath70">
        <path d="M945 1499 L999 1499 L999 1526 L945 1526 L945 1499 Z" />
      </clipPath>
      <clipPath clipPathUnits="userSpaceOnUse" id="clipPath71">
        <path d="M924 1454 L946 1454 L946 1496 L924 1496 L924 1454 Z" />
      </clipPath>
      <clipPath clipPathUnits="userSpaceOnUse" id="clipPath72">
        <path d="M945 1454 L987 1454 L987 1481 L945 1481 L945 1454 Z" />
      </clipPath>
      <clipPath clipPathUnits="userSpaceOnUse" id="clipPath73">
        <path d="M-1 -1 L1058 -1 L1058 1601 L-1 1601 L-1 -1 Z" />
      </clipPath>
      <clipPath clipPathUnits="userSpaceOnUse" id="clipPath74">
        <path d="M216 71 L626 71 L626 95 L216 95 L216 71 Z" />
      </clipPath>
      <clipPath clipPathUnits="userSpaceOnUse" id="clipPath75">
        <path d="M266 93 L278 93 L278 104 L266 104 L266 93 Z" />
      </clipPath>
      <clipPath clipPathUnits="userSpaceOnUse" id="clipPath76">
        <path d="M281 182 L445 182 L445 206 L281 206 L281 182 Z" />
      </clipPath>
      <clipPath clipPathUnits="userSpaceOnUse" id="clipPath77">
        <path d="M266 204 L278 204 L278 215 L266 215 L266 204 Z" />
      </clipPath>
      <clipPath clipPathUnits="userSpaceOnUse" id="clipPath78">
        <path d="M233 301 L476 301 L476 325 L233 325 L233 301 Z" />
      </clipPath>
      <clipPath clipPathUnits="userSpaceOnUse" id="clipPath79">
        <path d="M266 324 L278 324 L278 335 L266 335 L266 324 Z" />
      </clipPath>
      <clipPath clipPathUnits="userSpaceOnUse" id="clipPath80">
        <path d="M192 1187 L478 1187 L478 1211 L192 1211 L192 1187 Z" />
      </clipPath>
      <clipPath clipPathUnits="userSpaceOnUse" id="clipPath81">
        <path d="M266 1209 L278 1209 L278 1220 L266 1220 L266 1209 Z" />
      </clipPath>
      <clipPath clipPathUnits="userSpaceOnUse" id="clipPath82">
        <path d="M67 123 L753 123 L753 147 L67 147 L67 123 Z" />
      </clipPath>
      <clipPath clipPathUnits="userSpaceOnUse" id="clipPath83">
        <path d="M916 144 L928 144 L928 155 L916 155 L916 144 Z" />
      </clipPath>
      <clipPath clipPathUnits="userSpaceOnUse" id="clipPath84">
        <path d="M194 237 L608 237 L608 261 L194 261 L194 237 Z" />
      </clipPath>
      <clipPath clipPathUnits="userSpaceOnUse" id="clipPath85">
        <path d="M916 257 L928 257 L928 268 L916 268 L916 257 Z" />
      </clipPath>
      <clipPath clipPathUnits="userSpaceOnUse" id="clipPath86">
        <path d="M178 1246 L627 1246 L627 1270 L178 1270 L178 1246 Z" />
      </clipPath>
      <clipPath clipPathUnits="userSpaceOnUse" id="clipPath87">
        <path d="M916 1269 L928 1269 L928 1280 L916 1280 L916 1269 Z" />
      </clipPath>
      <clipPath clipPathUnits="userSpaceOnUse" id="clipPath88">
        <path d="M498 486 L699 486 L699 513 L498 513 L498 486 Z" />
      </clipPath>
      <clipPath clipPathUnits="userSpaceOnUse" id="clipPath89">
        <path d="M266 504 L278 504 L278 515 L266 515 L266 504 Z" />
      </clipPath>
      <clipPath clipPathUnits="userSpaceOnUse" id="clipPath90">
        <path d="M243 621 L542 621 L542 648 L243 648 L243 621 Z" />
      </clipPath>
      <clipPath clipPathUnits="userSpaceOnUse" id="clipPath91">
        <path d="M266 639 L278 639 L278 650 L266 650 L266 639 Z" />
      </clipPath>
      <clipPath clipPathUnits="userSpaceOnUse" id="clipPath92">
        <path d="M513 741 L684 741 L684 768 L513 768 L513 741 Z" />
      </clipPath>
      <clipPath clipPathUnits="userSpaceOnUse" id="clipPath93">
        <path d="M266 759 L278 759 L278 770 L266 770 L266 759 Z" />
      </clipPath>
      <clipPath clipPathUnits="userSpaceOnUse" id="clipPath94">
        <path d="M23 861 L1038 861 L1038 888 L23 888 L23 861 Z" />
      </clipPath>
      <clipPath clipPathUnits="userSpaceOnUse" id="clipPath95">
        <path d="M266 879 L278 879 L278 890 L266 890 L266 879 Z" />
      </clipPath>
      <clipPath clipPathUnits="userSpaceOnUse" id="clipPath96">
        <path d="M198 1296 L998 1296 L998 1323 L198 1323 L198 1296 Z" />
      </clipPath>
      <clipPath clipPathUnits="userSpaceOnUse" id="clipPath97">
        <path d="M266 1314 L278 1314 L278 1325 L266 1325 L266 1314 Z" />
      </clipPath>
      <clipPath clipPathUnits="userSpaceOnUse" id="clipPath98">
        <path d="M521 1386 L675 1386 L675 1413 L521 1413 L521 1386 Z" />
      </clipPath>
      <clipPath clipPathUnits="userSpaceOnUse" id="clipPath99">
        <path d="M266 1404 L278 1404 L278 1415 L266 1415 L266 1404 Z" />
      </clipPath>
      <clipPath clipPathUnits="userSpaceOnUse" id="clipPath100">
        <path d="M442 366 L754 366 L754 393 L442 393 L442 366 Z" />
      </clipPath>
      <clipPath clipPathUnits="userSpaceOnUse" id="clipPath101">
        <path d="M916 384 L928 384 L928 395 L916 395 L916 384 Z" />
      </clipPath>
      <clipPath clipPathUnits="userSpaceOnUse" id="clipPath102">
        <path d="M164 531 L896 531 L896 558 L164 558 L164 531 Z" />
      </clipPath>
      <clipPath clipPathUnits="userSpaceOnUse" id="clipPath103">
        <path d="M779 549 L791 549 L791 560 L779 560 L779 549 Z" />
      </clipPath>
      <clipPath clipPathUnits="userSpaceOnUse" id="clipPath104">
        <path d="M348 576 L849 576 L849 603 L348 603 L348 576 Z" />
      </clipPath>
      <clipPath clipPathUnits="userSpaceOnUse" id="clipPath105">
        <path d="M916 594 L928 594 L928 605 L916 605 L916 594 Z" />
      </clipPath>
      <clipPath clipPathUnits="userSpaceOnUse" id="clipPath106">
        <path d="M399 801 L797 801 L797 828 L399 828 L399 801 Z" />
      </clipPath>
      <clipPath clipPathUnits="userSpaceOnUse" id="clipPath107">
        <path d="M916 819 L928 819 L928 830 L916 830 L916 819 Z" />
      </clipPath>
      <clipPath clipPathUnits="userSpaceOnUse" id="clipPath108">
        <path d="M102 906 L959 906 L959 933 L102 933 L102 906 Z" />
      </clipPath>
      <clipPath clipPathUnits="userSpaceOnUse" id="clipPath109">
        <path d="M779 924 L791 924 L791 935 L779 935 L779 924 Z" />
      </clipPath>
      <clipPath clipPathUnits="userSpaceOnUse" id="clipPath110">
        <path d="M381 1341 L816 1341 L816 1368 L381 1368 L381 1341 Z" />
      </clipPath>
      <clipPath clipPathUnits="userSpaceOnUse" id="clipPath111">
        <path d="M916 1359 L928 1359 L928 1370 L916 1370 L916 1359 Z" />
      </clipPath>
      <clipPath clipPathUnits="userSpaceOnUse" id="clipPath112">
        <path d="M54 951 L1007 951 L1007 978 L54 978 L54 951 Z" />
      </clipPath>
      <clipPath clipPathUnits="userSpaceOnUse" id="clipPath113">
        <path d="M266 969 L278 969 L278 980 L266 980 L266 969 Z" />
      </clipPath>
      <clipPath clipPathUnits="userSpaceOnUse" id="clipPath114">
        <path d="M243 1071 L542 1071 L542 1098 L243 1098 L243 1071 Z" />
      </clipPath>
      <clipPath clipPathUnits="userSpaceOnUse" id="clipPath115">
        <path d="M266 1089 L278 1089 L278 1100 L266 1100 L266 1089 Z" />
      </clipPath>
      <clipPath clipPathUnits="userSpaceOnUse" id="clipPath116">
        <path d="M487 1476 L710 1476 L710 1503 L487 1503 L487 1476 Z" />
      </clipPath>
      <clipPath clipPathUnits="userSpaceOnUse" id="clipPath117">
        <path d="M266 1494 L278 1494 L278 1505 L266 1505 L266 1494 Z" />
      </clipPath>
      <clipPath clipPathUnits="userSpaceOnUse" id="clipPath118">
        <path d="M102 996 L959 996 L959 1023 L102 1023 L102 996 Z" />
      </clipPath>
      <clipPath clipPathUnits="userSpaceOnUse" id="clipPath119">
        <path d="M779 1014 L791 1014 L791 1025 L779 1025 L779 1014 Z" />
      </clipPath>
      <clipPath clipPathUnits="userSpaceOnUse" id="clipPath120">
        <path d="M442 1431 L755 1431 L755 1458 L442 1458 L442 1431 Z" />
      </clipPath>
      <clipPath clipPathUnits="userSpaceOnUse" id="clipPath121">
        <path d="M916 1449 L928 1449 L928 1460 L916 1460 L916 1449 Z" />
      </clipPath>
    </defs>
    <g font-size="19" fill="rgb(238,201,142)" font-family="'Lucida Sans'" stroke-linejoin="round" stroke="rgb(238,201,142)" stroke-width="0" stroke-miterlimit="0">
      <rect x="233" y="10" clip-path="url(#clipPath1)" width="70" height="30" stroke="none" />
    </g>
    <g stroke-width="0.1" font-size="19" font-family="'Lucida Sans'" stroke-linecap="butt">
      <rect x="233" y="10" clip-path="url(#clipPath1)" fill="none" width="69" height="29" />
      <text xml:space="preserve" x="234" y="33" clip-path="url(#clipPath2)" stroke="none">System</text>
      <line clip-path="url(#clipPath3)" fill="none" x1="267" x2="267" y1="40" y2="1590" stroke-dasharray="10,10" stroke-width="1.1" />
    </g>
    <g stroke-linecap="butt" font-size="19" fill="rgb(255,245,181)" font-family="'Lucida Sans'" stroke-dasharray="10,10" stroke="rgb(255,245,181)" stroke-width="1.1">
      <rect x="333" y="10" clip-path="url(#clipPath4)" width="120" height="50" stroke="none" />
    </g>
    <g stroke-width="0.1" font-size="19" font-family="'Lucida Sans'" stroke-linecap="butt">
      <rect x="333" y="10" clip-path="url(#clipPath4)" fill="none" width="119" height="49" />
      <text xml:space="preserve" x="343" y="21" clip-path="url(#clipPath5)" stroke="none">theCreator</text>
      <text xml:space="preserve" x="387" y="43" clip-path="url(#clipPath6)" stroke="none">: </text>
      <text xml:space="preserve" x="337" y="65" clip-path="url(#clipPath5)" stroke="none">actMsrCre...</text>
      <line clip-path="url(#clipPath7)" fill="none" x1="392" x2="392" y1="60" y2="1590" stroke-dasharray="10,10" stroke-width="1.1" />
    </g>
    <g stroke-linecap="butt" font-size="19" fill="rgb(255,245,181)" font-family="'Lucida Sans'" stroke-dasharray="10,10" stroke="rgb(255,245,181)" stroke-width="1.1">
      <rect x="463" y="10" clip-path="url(#clipPath8)" width="119" height="50" stroke="none" />
    </g>
    <g stroke-width="0.1" font-size="19" font-family="'Lucida Sans'" stroke-linecap="butt">
      <rect x="463" y="10" clip-path="url(#clipPath8)" fill="none" width="118" height="49" />
      <text xml:space="preserve" x="481" y="21" clip-path="url(#clipPath9)" stroke="none">theClock</text>
      <text xml:space="preserve" x="516" y="43" clip-path="url(#clipPath10)" stroke="none">: </text>
      <text xml:space="preserve" x="465" y="65" clip-path="url(#clipPath11)" stroke="none">actActivator</text>
      <line clip-path="url(#clipPath12)" fill="none" x1="521" x2="521" y1="60" y2="1590" stroke-dasharray="10,10" stroke-width="1.1" />
    </g>
    <g stroke-linecap="butt" fill="rgb(39,76,114)" font-family="'Segoe UI'" stroke-dasharray="10,10" stroke="rgb(39,76,114)" stroke-width="1.1">
      <rect x="512" y="645" clip-path="url(#clipPath13)" width="20" height="40" stroke="none" />
      <rect x="512" y="645" clip-path="url(#clipPath13)" fill="none" width="19" stroke-dasharray="none" height="39" stroke-width="0.1" />
    </g>
    <g stroke-width="0.1" font-size="19" font-family="'Segoe UI'" stroke-linecap="butt">
      <text xml:space="preserve" x="533" y="666" clip-path="url(#clipPath14)" stroke="none">out05</text>
      <rect x="512" y="1095" clip-path="url(#clipPath15)" fill="rgb(39,76,114)" width="20" height="40" stroke="none" />
      <rect x="512" y="1095" clip-path="url(#clipPath15)" fill="none" width="19" height="39" stroke="rgb(39,76,114)" />
      <text xml:space="preserve" x="533" y="1116" clip-path="url(#clipPath16)" stroke="none">out09</text>
      <rect x="592" y="10" clip-path="url(#clipPath17)" fill="rgb(255,245,181)" width="130" height="50" stroke="none" />
      <rect x="592" y="10" clip-path="url(#clipPath17)" fill="none" width="129" height="49" />
      <text x="641" y="21" clip-path="url(#clipPath18)" font-family="'Lucida Sans'" stroke="none" xml:space="preserve">bill</text>
      <text x="650" y="43" clip-path="url(#clipPath18)" font-family="'Lucida Sans'" stroke="none" xml:space="preserve">: </text>
      <text x="595" y="65" clip-path="url(#clipPath19)" font-family="'Lucida Sans'" stroke="none" xml:space="preserve">actAdminis...</text>
      <line clip-path="url(#clipPath20)" fill="none" x1="656" x2="656" y1="60" y2="1590" stroke-dasharray="10,10" stroke-width="1.1" />
    </g>
    <g stroke-linecap="butt" font-size="19" fill="rgb(255,245,181)" font-family="'Lucida Sans'" stroke-dasharray="10,10" stroke="rgb(255,245,181)" stroke-width="1.1">
      <rect x="732" y="10" clip-path="url(#clipPath21)" width="132" height="50" stroke="none" />
    </g>
    <g stroke-width="0.1" font-size="19" font-family="'Lucida Sans'" stroke-linecap="butt">
      <rect x="732" y="10" clip-path="url(#clipPath21)" fill="none" width="131" height="49" />
      <text xml:space="preserve" x="771" y="21" clip-path="url(#clipPath22)" stroke="none">tango</text>
      <text xml:space="preserve" x="792" y="43" clip-path="url(#clipPath23)" stroke="none">: </text>
      <text xml:space="preserve" x="741" y="65" clip-path="url(#clipPath22)" stroke="none">actComCo...</text>
      <line clip-path="url(#clipPath24)" fill="none" x1="797" x2="797" y1="60" y2="1590" stroke-dasharray="10,10" stroke-width="1.1" />
    </g>
    <g stroke-linecap="butt" fill="rgb(39,76,114)" font-family="'Segoe UI'" stroke-dasharray="10,10" stroke="rgb(39,76,114)" stroke-width="1.1">
      <rect x="788" y="885" clip-path="url(#clipPath25)" width="20" height="40" stroke="none" />
      <rect x="788" y="885" clip-path="url(#clipPath25)" fill="none" width="19" stroke-dasharray="none" height="39" stroke-width="0.1" />
    </g>
    <g stroke-width="0.1" font-size="19" font-family="'Segoe UI'" stroke-linecap="butt">
      <text xml:space="preserve" x="809" y="906" clip-path="url(#clipPath26)" stroke="none">out07</text>
      <rect x="788" y="555" clip-path="url(#clipPath27)" fill="rgb(194,239,255)" width="20" height="40" stroke="none" />
      <rect x="788" y="555" clip-path="url(#clipPath27)" fill="none" width="19" height="39" stroke="rgb(194,239,255)" />
      <text xml:space="preserve" x="809" y="576" clip-path="url(#clipPath28)" stroke="none">in04</text>
      <rect x="788" y="930" clip-path="url(#clipPath29)" fill="rgb(194,239,255)" width="20" height="40" stroke="none" />
      <rect x="788" y="930" clip-path="url(#clipPath29)" fill="none" width="19" height="39" stroke="rgb(194,239,255)" />
      <text xml:space="preserve" x="809" y="951" clip-path="url(#clipPath30)" stroke="none">in07</text>
      <rect x="788" y="975" clip-path="url(#clipPath31)" fill="rgb(39,76,114)" width="20" height="40" stroke="none" />
      <rect x="788" y="975" clip-path="url(#clipPath31)" fill="none" width="19" height="39" stroke="rgb(39,76,114)" />
      <text xml:space="preserve" x="809" y="996" clip-path="url(#clipPath32)" stroke="none">out08</text>
      <rect x="788" y="1020" clip-path="url(#clipPath33)" fill="rgb(194,239,255)" width="20" height="40" stroke="none" />
      <rect x="788" y="1020" clip-path="url(#clipPath33)" fill="none" width="19" height="39" stroke="rgb(194,239,255)" />
      <text xml:space="preserve" x="809" y="1041" clip-path="url(#clipPath34)" stroke="none">in08</text>
      <rect x="874" y="10" clip-path="url(#clipPath35)" fill="rgb(255,245,181)" width="122" height="50" stroke="none" />
      <rect x="874" y="10" clip-path="url(#clipPath35)" fill="none" width="121" height="49" />
      <text x="910" y="21" clip-path="url(#clipPath36)" font-family="'Lucida Sans'" stroke="none" xml:space="preserve">steve</text>
      <text x="928" y="43" clip-path="url(#clipPath37)" font-family="'Lucida Sans'" stroke="none" xml:space="preserve">: </text>
      <text x="874" y="65" clip-path="url(#clipPath36)" font-family="'Lucida Sans'" stroke="none" xml:space="preserve">actCoordin...</text>
      <line clip-path="url(#clipPath38)" fill="none" x1="934" x2="934" y1="60" y2="1590" stroke-dasharray="10,10" stroke-width="1.1" />
    </g>
    <g stroke-linecap="butt" font-size="19" fill="rgb(39,76,114)" font-family="'Lucida Sans'" stroke-dasharray="10,10" stroke="rgb(39,76,114)" stroke-width="1.1">
      <rect x="925" y="99" clip-path="url(#clipPath39)" width="20" height="40" stroke="none" />
      <rect x="925" y="99" clip-path="url(#clipPath39)" fill="none" width="19" stroke-dasharray="none" height="39" stroke-width="0.1" />
    </g>
    <g stroke-width="0.1" font-size="19" font-family="'Lucida Sans'" stroke-linecap="butt">
      <text xml:space="preserve" x="946" y="118" clip-path="url(#clipPath40)" stroke="none">out01</text>
      <rect x="925" y="210" clip-path="url(#clipPath41)" fill="rgb(39,76,114)" width="20" height="40" stroke="none" />
      <rect x="925" y="210" clip-path="url(#clipPath41)" fill="none" width="19" height="39" stroke="rgb(39,76,114)" />
      <text xml:space="preserve" x="946" y="229" clip-path="url(#clipPath42)" stroke="none">out02</text>
      <rect x="925" y="330" clip-path="url(#clipPath43)" fill="rgb(39,76,114)" width="20" height="40" stroke="none" />
      <rect x="925" y="330" clip-path="url(#clipPath43)" fill="none" width="19" height="39" stroke="rgb(39,76,114)" />
      <text xml:space="preserve" x="946" y="349" clip-path="url(#clipPath44)" stroke="none">out03</text>
      <rect x="925" y="1215" clip-path="url(#clipPath45)" fill="rgb(39,76,114)" width="20" height="40" stroke="none" />
      <rect x="925" y="1215" clip-path="url(#clipPath45)" fill="none" width="19" height="39" stroke="rgb(39,76,114)" />
      <text xml:space="preserve" x="946" y="1234" clip-path="url(#clipPath46)" stroke="none">out10</text>
      <rect x="925" y="150" clip-path="url(#clipPath47)" fill="rgb(194,239,255)" width="20" height="40" stroke="none" />
      <rect x="925" y="150" clip-path="url(#clipPath47)" fill="none" width="19" height="39" stroke="rgb(194,239,255)" />
      <text xml:space="preserve" x="946" y="169" clip-path="url(#clipPath48)" stroke="none">in01</text>
      <rect x="925" y="263" clip-path="url(#clipPath49)" fill="rgb(194,239,255)" width="20" height="40" stroke="none" />
      <rect x="925" y="263" clip-path="url(#clipPath49)" fill="none" width="19" height="39" stroke="rgb(194,239,255)" />
      <text xml:space="preserve" x="946" y="282" clip-path="url(#clipPath50)" stroke="none">in02</text>
      <rect x="925" y="1275" clip-path="url(#clipPath51)" fill="rgb(194,239,255)" width="20" height="40" stroke="none" />
      <rect x="925" y="1275" clip-path="url(#clipPath51)" fill="none" width="19" height="39" stroke="rgb(194,239,255)" />
      <text xml:space="preserve" x="946" y="1294" clip-path="url(#clipPath52)" stroke="none">in09</text>
    </g>
    <g fill="rgb(39,76,114)" stroke-width="0.1" font-family="'Segoe UI'" stroke-linecap="butt" stroke="rgb(39,76,114)">
      <rect x="925" y="510" clip-path="url(#clipPath53)" width="20" height="40" stroke="none" />
      <rect x="925" y="510" clip-path="url(#clipPath53)" fill="none" width="19" height="39" />
      <text x="946" font-size="19" y="531" clip-path="url(#clipPath54)" fill="black" stroke="none" xml:space="preserve">out04</text>
      <rect x="925" y="765" clip-path="url(#clipPath55)" width="20" height="40" stroke="none" />
      <rect x="925" y="765" clip-path="url(#clipPath55)" fill="none" width="19" height="39" />
      <text x="946" font-size="19" y="786" clip-path="url(#clipPath56)" fill="black" stroke="none" xml:space="preserve">out06</text>
      <rect x="925" y="1320" clip-path="url(#clipPath57)" width="20" height="40" stroke="none" />
      <rect x="925" y="1320" clip-path="url(#clipPath57)" fill="none" width="19" height="39" />
      <text x="946" font-size="19" y="1341" clip-path="url(#clipPath58)" fill="black" stroke="none" xml:space="preserve">out11</text>
      <rect x="925" y="1410" clip-path="url(#clipPath59)" width="20" height="40" stroke="none" />
      <rect x="925" y="1410" clip-path="url(#clipPath59)" fill="none" width="19" height="39" />
      <text x="946" font-size="19" y="1431" clip-path="url(#clipPath60)" fill="black" stroke="none" xml:space="preserve">out12</text>
      <rect x="925" y="390" clip-path="url(#clipPath61)" fill="rgb(194,239,255)" width="20" height="40" stroke="none" />
      <rect x="925" y="390" clip-path="url(#clipPath61)" fill="none" width="19" height="39" stroke="rgb(194,239,255)" />
      <text x="946" font-size="19" y="411" clip-path="url(#clipPath62)" fill="black" stroke="none" xml:space="preserve">in03</text>
      <rect x="925" y="600" clip-path="url(#clipPath63)" fill="rgb(194,239,255)" width="20" height="40" stroke="none" />
      <rect x="925" y="600" clip-path="url(#clipPath63)" fill="none" width="19" height="39" stroke="rgb(194,239,255)" />
      <text x="946" font-size="19" y="621" clip-path="url(#clipPath64)" fill="black" stroke="none" xml:space="preserve">in05</text>
      <rect x="925" y="825" clip-path="url(#clipPath65)" fill="rgb(194,239,255)" width="20" height="40" stroke="none" />
      <rect x="925" y="825" clip-path="url(#clipPath65)" fill="none" width="19" height="39" stroke="rgb(194,239,255)" />
      <text x="946" font-size="19" y="846" clip-path="url(#clipPath66)" fill="black" stroke="none" xml:space="preserve">in06</text>
      <rect x="925" y="1365" clip-path="url(#clipPath67)" fill="rgb(194,239,255)" width="20" height="40" stroke="none" />
      <rect x="925" y="1365" clip-path="url(#clipPath67)" fill="none" width="19" height="39" stroke="rgb(194,239,255)" />
      <text x="946" font-size="19" y="1386" clip-path="url(#clipPath68)" fill="black" stroke="none" xml:space="preserve">in10</text>
      <rect x="925" y="1500" clip-path="url(#clipPath69)" width="20" height="40" stroke="none" />
      <rect x="925" y="1500" clip-path="url(#clipPath69)" fill="none" width="19" height="39" />
      <text x="946" font-size="19" y="1521" clip-path="url(#clipPath70)" fill="black" stroke="none" xml:space="preserve">out13</text>
      <rect x="925" y="1455" clip-path="url(#clipPath71)" fill="rgb(194,239,255)" width="20" height="40" stroke="none" />
      <rect x="925" y="1455" clip-path="url(#clipPath71)" fill="none" width="19" height="39" stroke="rgb(194,239,255)" />
      <text x="946" font-size="19" y="1476" clip-path="url(#clipPath72)" fill="black" stroke="none" xml:space="preserve">in11</text>
    </g>
    <g stroke-linecap="butt" font-size="19" fill="rgb(136,136,136)" font-family="'Lucida Sans'" stroke="rgb(136,136,136)" stroke-width="2.1">
      <line clip-path="url(#clipPath73)" fill="none" x1="925" x2="268" y1="98" y2="98" />
      <text x="217" y="91" clip-path="url(#clipPath74)" fill="black" stroke="none" xml:space="preserve">oeLogin("steve","pwdMessirExcalibur2017")</text>
      <line clip-path="url(#clipPath75)" fill="none" x1="275" x2="268" y1="95" y2="98" />
      <line clip-path="url(#clipPath75)" fill="none" x1="268" x2="275" y1="98" y2="101" />
      <line clip-path="url(#clipPath73)" fill="none" x1="925" x2="268" y1="209" y2="209" />
      <text x="282" y="202" clip-path="url(#clipPath76)" fill="black" stroke="none" xml:space="preserve">oeSMS("241312")</text>
      <line clip-path="url(#clipPath77)" fill="none" x1="275" x2="268" y1="206" y2="209" />
      <line clip-path="url(#clipPath77)" fill="none" x1="268" x2="275" y1="209" y2="212" />
      <line clip-path="url(#clipPath73)" fill="none" x1="925" x2="268" y1="329" y2="329" />
      <text x="234" y="321" clip-path="url(#clipPath78)" fill="black" stroke="none" xml:space="preserve">oeGetCrisisSet("pending")</text>
      <line clip-path="url(#clipPath79)" fill="none" x1="275" x2="268" y1="326" y2="329" />
      <line clip-path="url(#clipPath79)" fill="none" x1="268" x2="275" y1="329" y2="332" />
      <line clip-path="url(#clipPath73)" fill="none" x1="925" x2="268" y1="1214" y2="1214" />
      <text x="193" y="1207" clip-path="url(#clipPath80)" fill="black" stroke="none" xml:space="preserve">oeSetCrisisStatus("1","solved")</text>
      <line clip-path="url(#clipPath81)" fill="none" x1="275" x2="268" y1="1211" y2="1214" />
      <line clip-path="url(#clipPath81)" fill="none" x1="268" x2="275" y1="1214" y2="1217" />
      <line clip-path="url(#clipPath73)" fill="none" x1="925" x2="268" y1="149" y2="149" stroke-dasharray="5,5" />
      <text x="68" y="143" clip-path="url(#clipPath82)" fill="black" stroke-dasharray="5,5" stroke="none" xml:space="preserve">ieMessage(Your login and password are correct. Sms code has been sent)</text>
      <line clip-path="url(#clipPath83)" fill="none" x1="918" x2="925" y1="152" y2="149" />
      <line clip-path="url(#clipPath83)" fill="none" x1="925" x2="918" y1="149" y2="146" />
      <line clip-path="url(#clipPath73)" fill="none" x1="925" x2="268" y1="262" y2="262" stroke-dasharray="5,5" />
      <text x="195" y="257" clip-path="url(#clipPath84)" fill="black" stroke-dasharray="5,5" stroke="none" xml:space="preserve">ieMessage(Your are logged in ! Wellcome ...)</text>
      <line clip-path="url(#clipPath85)" fill="none" x1="918" x2="925" y1="265" y2="262" />
      <line clip-path="url(#clipPath85)" fill="none" x1="925" x2="918" y1="262" y2="259" />
      <line clip-path="url(#clipPath73)" fill="none" x1="925" x2="268" y1="1274" y2="1274" stroke-dasharray="5,5" />
      <text x="179" y="1266" clip-path="url(#clipPath86)" fill="black" stroke-dasharray="5,5" stroke="none" xml:space="preserve">ieMessage(The crisis status has been updated !)</text>
      <line clip-path="url(#clipPath87)" fill="none" x1="918" x2="925" y1="1277" y2="1274" />
      <line clip-path="url(#clipPath87)" fill="none" x1="925" x2="918" y1="1274" y2="1271" />
      <line clip-path="url(#clipPath73)" fill="none" x1="925" x2="268" y1="509" y2="509" />
      <text x="499" y="508" clip-path="url(#clipPath88)" fill="black" font-family="'Segoe UI'" stroke="none" xml:space="preserve">oeSetCrisisHandler("1")</text>
      <line clip-path="url(#clipPath89)" fill="none" x1="275" x2="268" y1="506" y2="509" />
      <line clip-path="url(#clipPath89)" fill="none" x1="268" x2="275" y1="509" y2="512" />
      <line clip-path="url(#clipPath73)" fill="none" x1="512" x2="268" y1="644" y2="644" />
      <text x="244" y="643" clip-path="url(#clipPath90)" fill="black" font-family="'Segoe UI'" stroke="none" xml:space="preserve">oeSetClock("2017:11:26 - 10:45:00")</text>
      <line clip-path="url(#clipPath91)" fill="none" x1="275" x2="268" y1="641" y2="644" />
      <line clip-path="url(#clipPath91)" fill="none" x1="268" x2="275" y1="644" y2="647" />
      <line clip-path="url(#clipPath73)" fill="none" x1="925" x2="268" y1="764" y2="764" />
      <text x="514" y="763" clip-path="url(#clipPath92)" fill="black" font-family="'Segoe UI'" stroke="none" xml:space="preserve">oeValidateAlert("1")</text>
      <line clip-path="url(#clipPath93)" fill="none" x1="275" x2="268" y1="761" y2="764" />
      <line clip-path="url(#clipPath93)" fill="none" x1="268" x2="275" y1="764" y2="767" />
      <line clip-path="url(#clipPath73)" fill="none" x1="788" x2="268" y1="884" y2="884" />
      <text x="24" y="883" clip-path="url(#clipPath94)" fill="black" font-family="'Segoe UI'" stroke="none" xml:space="preserve">oeAlert("witness","2017:11:26","10:20:00","+3524666445000","49.627095:6.160251","A car crash just happened.","medium")</text>
      <line clip-path="url(#clipPath95)" fill="none" x1="275" x2="268" y1="881" y2="884" />
      <line clip-path="url(#clipPath95)" fill="none" x1="268" x2="275" y1="884" y2="887" />
      <line clip-path="url(#clipPath73)" fill="none" x1="925" x2="268" y1="1319" y2="1319" />
      <text x="199" y="1318" clip-path="url(#clipPath96)" fill="black" font-family="'Segoe UI'" stroke="none" xml:space="preserve">oeReportOnCrisis("1","3 victims sent to hospital, 2 cars evacuated and 4 rescue unit mobilized")</text>
      <line clip-path="url(#clipPath97)" fill="none" x1="275" x2="268" y1="1316" y2="1319" />
      <line clip-path="url(#clipPath97)" fill="none" x1="268" x2="275" y1="1319" y2="1322" />
      <line clip-path="url(#clipPath73)" fill="none" x1="925" x2="268" y1="1409" y2="1409" />
      <text x="522" y="1408" clip-path="url(#clipPath98)" fill="black" font-family="'Segoe UI'" stroke="none" xml:space="preserve">oeCloseCrisis("1")</text>
      <line clip-path="url(#clipPath99)" fill="none" x1="275" x2="268" y1="1406" y2="1409" />
      <line clip-path="url(#clipPath99)" fill="none" x1="268" x2="275" y1="1409" y2="1412" />
      <line clip-path="url(#clipPath73)" fill="none" x1="925" x2="268" y1="389" y2="389" stroke-dasharray="5,5" />
    </g>
    <g stroke-width="2.1" font-size="19" stroke-dasharray="5,5" font-family="'Segoe UI'" stroke-linecap="butt">
      <text xml:space="preserve" x="443" y="388" clip-path="url(#clipPath100)" stroke="none">ieSendACrisis(crisis with ID 1 details)</text>
      <line clip-path="url(#clipPath101)" fill="none" x1="918" x2="925" y1="392" y2="389" stroke-dasharray="none" stroke="rgb(136,136,136)" />
      <line clip-path="url(#clipPath101)" fill="none" x1="925" x2="918" y1="389" y2="386" stroke-dasharray="none" stroke="rgb(136,136,136)" />
      <line clip-path="url(#clipPath73)" fill="none" x1="788" x2="268" y1="554" y2="554" stroke="rgb(136,136,136)" />
      <text xml:space="preserve" x="165" y="553" clip-path="url(#clipPath102)" stroke="none">ieSmsSend(+3524666445252,The handling of your alert by our services is in progress !)</text>
      <line clip-path="url(#clipPath103)" fill="none" x1="781" x2="788" y1="557" y2="554" stroke-dasharray="none" stroke="rgb(136,136,136)" />
      <line clip-path="url(#clipPath103)" fill="none" x1="788" x2="781" y1="554" y2="551" stroke-dasharray="none" stroke="rgb(136,136,136)" />
      <line clip-path="url(#clipPath73)" fill="none" x1="925" x2="268" y1="599" y2="599" stroke="rgb(136,136,136)" />
      <text xml:space="preserve" x="349" y="598" clip-path="url(#clipPath104)" stroke="none">ieMessage(You are now considered as handling the crisis !)</text>
      <line clip-path="url(#clipPath105)" fill="none" x1="918" x2="925" y1="602" y2="599" stroke-dasharray="none" stroke="rgb(136,136,136)" />
      <line clip-path="url(#clipPath105)" fill="none" x1="925" x2="918" y1="599" y2="596" stroke-dasharray="none" stroke="rgb(136,136,136)" />
      <line clip-path="url(#clipPath73)" fill="none" x1="925" x2="268" y1="824" y2="824" stroke="rgb(136,136,136)" />
      <text xml:space="preserve" x="400" y="823" clip-path="url(#clipPath106)" stroke="none">ieMessage(The Alert is now declared as valid !)</text>
      <line clip-path="url(#clipPath107)" fill="none" x1="918" x2="925" y1="827" y2="824" stroke-dasharray="none" stroke="rgb(136,136,136)" />
      <line clip-path="url(#clipPath107)" fill="none" x1="925" x2="918" y1="824" y2="821" stroke-dasharray="none" stroke="rgb(136,136,136)" />
      <line clip-path="url(#clipPath73)" fill="none" x1="788" x2="268" y1="929" y2="929" stroke="rgb(136,136,136)" />
      <text xml:space="preserve" x="103" y="928" clip-path="url(#clipPath108)" stroke="none">ieSmsSend(+3524666445000,Your alert has been registered. We will handle it and keep you informed)</text>
      <line clip-path="url(#clipPath109)" fill="none" x1="781" x2="788" y1="932" y2="929" stroke-dasharray="none" stroke="rgb(136,136,136)" />
      <line clip-path="url(#clipPath109)" fill="none" x1="788" x2="781" y1="929" y2="926" stroke-dasharray="none" stroke="rgb(136,136,136)" />
      <line clip-path="url(#clipPath73)" fill="none" x1="925" x2="268" y1="1364" y2="1364" stroke="rgb(136,136,136)" />
      <text xml:space="preserve" x="382" y="1363" clip-path="url(#clipPath110)" stroke="none">ieMessage(The crisis comment has been updated !)</text>
      <line clip-path="url(#clipPath111)" fill="none" x1="918" x2="925" y1="1367" y2="1364" stroke-dasharray="none" stroke="rgb(136,136,136)" />
      <line clip-path="url(#clipPath111)" fill="none" x1="925" x2="918" y1="1364" y2="1361" stroke-dasharray="none" stroke="rgb(136,136,136)" />
      <line clip-path="url(#clipPath73)" fill="none" x1="788" x2="268" y1="974" y2="974" stroke-dasharray="none" stroke="rgb(136,136,136)" />
      <text x="55" y="973" clip-path="url(#clipPath112)" stroke-dasharray="none" stroke="none" xml:space="preserve">oeAlert("witness","2017:11:26","10:20:00","+3524666445112","69.33143:65.160251","A car hit 2 pedestrians.","high")</text>
      <line clip-path="url(#clipPath113)" fill="none" x1="275" x2="268" y1="971" y2="974" stroke-dasharray="none" stroke="rgb(136,136,136)" />
      <line clip-path="url(#clipPath113)" fill="none" x1="268" x2="275" y1="974" y2="977" stroke-dasharray="none" stroke="rgb(136,136,136)" />
      <line clip-path="url(#clipPath73)" fill="none" x1="512" x2="268" y1="1094" y2="1094" stroke-dasharray="none" stroke="rgb(136,136,136)" />
      <text x="244" y="1093" clip-path="url(#clipPath114)" stroke-dasharray="none" stroke="none" xml:space="preserve">oeSetClock("2017:11:26 - 12:45:00")</text>
      <line clip-path="url(#clipPath115)" fill="none" x1="275" x2="268" y1="1091" y2="1094" stroke-dasharray="none" stroke="rgb(136,136,136)" />
      <line clip-path="url(#clipPath115)" fill="none" x1="268" x2="275" y1="1094" y2="1097" stroke-dasharray="none" stroke="rgb(136,136,136)" />
      <line clip-path="url(#clipPath73)" fill="none" x1="925" x2="268" y1="1499" y2="1499" stroke-dasharray="none" stroke="rgb(136,136,136)" />
      <text x="488" y="1498" clip-path="url(#clipPath116)" stroke-dasharray="none" stroke="none" xml:space="preserve">oeGetCrisisSet("pending")</text>
      <line clip-path="url(#clipPath117)" fill="none" x1="275" x2="268" y1="1496" y2="1499" stroke-dasharray="none" stroke="rgb(136,136,136)" />
      <line clip-path="url(#clipPath117)" fill="none" x1="268" x2="275" y1="1499" y2="1502" stroke-dasharray="none" stroke="rgb(136,136,136)" />
      <line clip-path="url(#clipPath73)" fill="none" x1="788" x2="268" y1="1019" y2="1019" stroke="rgb(136,136,136)" />
      <text xml:space="preserve" x="103" y="1018" clip-path="url(#clipPath118)" stroke="none">ieSmsSend(+3524666445112,Your alert has been registered. We will handle it and keep you informed)</text>
      <line clip-path="url(#clipPath119)" fill="none" x1="781" x2="788" y1="1022" y2="1019" stroke-dasharray="none" stroke="rgb(136,136,136)" />
      <line clip-path="url(#clipPath119)" fill="none" x1="788" x2="781" y1="1019" y2="1016" stroke-dasharray="none" stroke="rgb(136,136,136)" />
      <line clip-path="url(#clipPath73)" fill="none" x1="925" x2="268" y1="1454" y2="1454" stroke="rgb(136,136,136)" />
      <text xml:space="preserve" x="443" y="1453" clip-path="url(#clipPath120)" stroke="none">ieMessage(The crisis is now closed !)</text>
      <line clip-path="url(#clipPath121)" fill="none" x1="918" x2="925" y1="1457" y2="1454" stroke-dasharray="none" stroke="rgb(136,136,136)" />
      <line clip-path="url(#clipPath121)" fill="none" x1="925" x2="918" y1="1454" y2="1451" stroke-dasharray="none" stroke="rgb(136,136,136)" />
    </g>
  </g>
</svg>

