<?xml version="1.0" encoding="UTF-8"?>
<svg xmlns="http://www.w3.org/2000/svg" xmlns:xlink="http://www.w3.org/1999/xlink" stroke-dasharray="none" shape-rendering="auto" font-family="'Dialog'" width="720" text-rendering="auto" fill-opacity="1" contentScriptType="text/ecmascript" color-interpolation="auto" color-rendering="auto" preserveAspectRatio="xMidYMid meet" font-size="12" viewBox="0 0 720 460" fill="black" stroke="black" image-rendering="auto" stroke-miterlimit="10" zoomAndPan="magnify" version="1.0" stroke-linecap="square" stroke-linejoin="miter" contentStyleType="text/css" font-style="normal" height="460" stroke-width="1" stroke-dashoffset="0" font-weight="normal" stroke-opacity="1">
  <!--Generated by the Batik Graphics2D SVG Generator-->
  <defs id="genericDefs" />
  <g>
    <defs id="defs1">
      <clipPath clipPathUnits="userSpaceOnUse" id="clipPath1">
        <path d="M75 9 L147 9 L147 41 L75 41 L75 9 Z" />
      </clipPath>
      <clipPath clipPathUnits="userSpaceOnUse" id="clipPath2">
        <path d="M75 9 L152 9 L152 41 L75 41 L75 9 Z" />
      </clipPath>
      <clipPath clipPathUnits="userSpaceOnUse" id="clipPath3">
        <path d="M105 39 L117 39 L117 451 L105 451 L105 39 Z" />
      </clipPath>
      <clipPath clipPathUnits="userSpaceOnUse" id="clipPath4">
        <path d="M542 9 L694 9 L694 61 L542 61 L542 9 Z" />
      </clipPath>
      <clipPath clipPathUnits="userSpaceOnUse" id="clipPath5">
        <path d="M542 9 L697 9 L697 61 L542 61 L542 9 Z" />
      </clipPath>
      <clipPath clipPathUnits="userSpaceOnUse" id="clipPath6">
        <path d="M542 9 L698 9 L698 61 L542 61 L542 9 Z" />
      </clipPath>
      <clipPath clipPathUnits="userSpaceOnUse" id="clipPath7">
        <path d="M612 59 L624 59 L624 451 L612 451 L612 59 Z" />
      </clipPath>
      <clipPath clipPathUnits="userSpaceOnUse" id="clipPath8">
        <path d="M607 89 L629 89 L629 131 L607 131 L607 89 Z" />
      </clipPath>
      <clipPath clipPathUnits="userSpaceOnUse" id="clipPath9">
        <path d="M628 89 L691 89 L691 113 L628 113 L628 89 Z" />
      </clipPath>
      <clipPath clipPathUnits="userSpaceOnUse" id="clipPath10">
        <path d="M607 209 L629 209 L629 251 L607 251 L607 209 Z" />
      </clipPath>
      <clipPath clipPathUnits="userSpaceOnUse" id="clipPath11">
        <path d="M628 209 L691 209 L691 233 L628 233 L628 209 Z" />
      </clipPath>
      <clipPath clipPathUnits="userSpaceOnUse" id="clipPath12">
        <path d="M607 149 L629 149 L629 191 L607 191 L607 149 Z" />
      </clipPath>
      <clipPath clipPathUnits="userSpaceOnUse" id="clipPath13">
        <path d="M628 149 L677 149 L677 173 L628 173 L628 149 Z" />
      </clipPath>
      <clipPath clipPathUnits="userSpaceOnUse" id="clipPath14">
        <path d="M607 269 L629 269 L629 311 L607 311 L607 269 Z" />
      </clipPath>
      <clipPath clipPathUnits="userSpaceOnUse" id="clipPath15">
        <path d="M628 269 L677 269 L677 293 L628 293 L628 269 Z" />
      </clipPath>
      <clipPath clipPathUnits="userSpaceOnUse" id="clipPath16">
        <path d="M607 314 L629 314 L629 356 L607 356 L607 314 Z" />
      </clipPath>
      <clipPath clipPathUnits="userSpaceOnUse" id="clipPath17">
        <path d="M628 314 L682 314 L682 341 L628 341 L628 314 Z" />
      </clipPath>
      <clipPath clipPathUnits="userSpaceOnUse" id="clipPath18">
        <path d="M607 359 L629 359 L629 401 L607 401 L607 359 Z" />
      </clipPath>
      <clipPath clipPathUnits="userSpaceOnUse" id="clipPath19">
        <path d="M628 359 L670 359 L670 386 L628 386 L628 359 Z" />
      </clipPath>
      <clipPath clipPathUnits="userSpaceOnUse" id="clipPath20">
        <path d="M-1 -1 L721 -1 L721 461 L-1 461 L-1 -1 Z" />
      </clipPath>
      <clipPath clipPathUnits="userSpaceOnUse" id="clipPath21">
        <path d="M192 68 L533 68 L533 92 L192 92 L192 68 Z" />
      </clipPath>
      <clipPath clipPathUnits="userSpaceOnUse" id="clipPath22">
        <path d="M109 85 L121 85 L121 96 L109 96 L109 85 Z" />
      </clipPath>
      <clipPath clipPathUnits="userSpaceOnUse" id="clipPath23">
        <path d="M281 188 L445 188 L445 212 L281 212 L281 188 Z" />
      </clipPath>
      <clipPath clipPathUnits="userSpaceOnUse" id="clipPath24">
        <path d="M109 205 L121 205 L121 216 L109 216 L109 205 Z" />
      </clipPath>
      <clipPath clipPathUnits="userSpaceOnUse" id="clipPath25">
        <path d="M23 128 L701 128 L701 152 L23 152 L23 128 Z" />
      </clipPath>
      <clipPath clipPathUnits="userSpaceOnUse" id="clipPath26">
        <path d="M599 145 L611 145 L611 156 L599 156 L599 145 Z" />
      </clipPath>
      <clipPath clipPathUnits="userSpaceOnUse" id="clipPath27">
        <path d="M159 248 L565 248 L565 272 L159 272 L159 248 Z" />
      </clipPath>
      <clipPath clipPathUnits="userSpaceOnUse" id="clipPath28">
        <path d="M599 265 L611 265 L611 276 L599 276 L599 265 Z" />
      </clipPath>
      <clipPath clipPathUnits="userSpaceOnUse" id="clipPath29">
        <path d="M313 292 L411 292 L411 319 L313 319 L313 292 Z" />
      </clipPath>
      <clipPath clipPathUnits="userSpaceOnUse" id="clipPath30">
        <path d="M109 310 L121 310 L121 321 L109 321 L109 310 Z" />
      </clipPath>
      <clipPath clipPathUnits="userSpaceOnUse" id="clipPath31">
        <path d="M172 337 L552 337 L552 364 L172 364 L172 337 Z" />
      </clipPath>
      <clipPath clipPathUnits="userSpaceOnUse" id="clipPath32">
        <path d="M599 355 L611 355 L611 366 L599 366 L599 355 Z" />
      </clipPath>
    </defs>
    <g font-size="11" fill="rgb(238,201,142)" font-family="'Lucida Sans'" stroke-linejoin="round" stroke="rgb(238,201,142)" stroke-width="0" stroke-miterlimit="0">
      <rect x="76" y="10" clip-path="url(#clipPath1)" width="70" height="30" stroke="none" />
    </g>
    <g stroke-width="0.1" font-size="11" font-family="'Lucida Sans'" stroke-linecap="butt">
      <rect x="76" y="10" clip-path="url(#clipPath1)" fill="none" width="69" height="29" />
      <text x="77" font-size="19" y="33" clip-path="url(#clipPath2)" stroke="none" xml:space="preserve">System</text>
      <line clip-path="url(#clipPath3)" fill="none" x1="110" x2="110" y1="40" y2="450" stroke-dasharray="10,10" stroke-width="1.1" />
    </g>
    <g stroke-linecap="butt" font-size="11" fill="rgb(255,245,181)" font-family="'Lucida Sans'" stroke-dasharray="10,10" stroke="rgb(255,245,181)" stroke-width="1.1">
      <rect x="543" y="10" clip-path="url(#clipPath4)" width="150" height="50" stroke="none" />
    </g>
    <g stroke-width="0.1" font-size="11" font-family="'Lucida Sans'" stroke-linecap="butt">
      <rect x="543" y="10" clip-path="url(#clipPath4)" fill="none" width="149" height="49" />
      <text x="602" font-size="19" y="21" clip-path="url(#clipPath5)" stroke="none" xml:space="preserve">bill</text>
      <text x="611" font-size="19" y="43" clip-path="url(#clipPath5)" stroke="none" xml:space="preserve">: </text>
      <text x="544" font-size="19" y="65" clip-path="url(#clipPath6)" stroke="none" xml:space="preserve">actAuthentica...</text>
      <line clip-path="url(#clipPath7)" fill="none" x1="617" x2="617" y1="60" y2="450" stroke-dasharray="10,10" stroke-width="1.1" />
    </g>
    <g stroke-linecap="butt" font-size="11" fill="rgb(39,76,114)" font-family="'Lucida Sans'" stroke-dasharray="10,10" stroke="rgb(39,76,114)" stroke-width="1.1">
      <rect x="608" y="90" clip-path="url(#clipPath8)" width="20" height="40" stroke="none" />
      <rect x="608" y="90" clip-path="url(#clipPath8)" fill="none" width="19" stroke-dasharray="none" height="39" stroke-width="0.1" />
    </g>
    <g stroke-width="0.1" font-size="19" font-family="'Lucida Sans'" stroke-linecap="butt">
      <text xml:space="preserve" x="629" y="109" clip-path="url(#clipPath9)" stroke="none">out01</text>
      <rect x="608" y="210" clip-path="url(#clipPath10)" fill="rgb(39,76,114)" width="20" height="40" stroke="none" />
      <rect x="608" y="210" clip-path="url(#clipPath10)" fill="none" width="19" height="39" stroke="rgb(39,76,114)" />
      <text xml:space="preserve" x="629" y="229" clip-path="url(#clipPath11)" stroke="none">out02</text>
      <rect x="608" y="150" clip-path="url(#clipPath12)" fill="rgb(194,239,255)" width="20" height="40" stroke="none" />
      <rect x="608" y="150" clip-path="url(#clipPath12)" fill="none" width="19" height="39" stroke="rgb(194,239,255)" />
      <text xml:space="preserve" x="629" y="169" clip-path="url(#clipPath13)" stroke="none">in01</text>
      <rect x="608" y="270" clip-path="url(#clipPath14)" fill="rgb(194,239,255)" width="20" height="40" stroke="none" />
      <rect x="608" y="270" clip-path="url(#clipPath14)" fill="none" width="19" height="39" stroke="rgb(194,239,255)" />
      <text xml:space="preserve" x="629" y="289" clip-path="url(#clipPath15)" stroke="none">in02</text>
    </g>
    <g fill="rgb(39,76,114)" stroke-width="0.1" font-family="'Segoe UI'" stroke-linecap="butt" stroke="rgb(39,76,114)">
      <rect x="608" y="315" clip-path="url(#clipPath16)" width="20" height="40" stroke="none" />
      <rect x="608" y="315" clip-path="url(#clipPath16)" fill="none" width="19" height="39" />
      <text x="629" font-size="19" y="336" clip-path="url(#clipPath17)" fill="black" stroke="none" xml:space="preserve">out03</text>
      <rect x="608" y="360" clip-path="url(#clipPath18)" fill="rgb(194,239,255)" width="20" height="40" stroke="none" />
      <rect x="608" y="360" clip-path="url(#clipPath18)" fill="none" width="19" height="39" stroke="rgb(194,239,255)" />
      <text x="629" font-size="19" y="381" clip-path="url(#clipPath19)" fill="black" stroke="none" xml:space="preserve">in03</text>
    </g>
    <g stroke-linecap="butt" font-size="19" fill="rgb(136,136,136)" font-family="'Lucida Sans'" stroke="rgb(136,136,136)" stroke-width="2.1">
      <line clip-path="url(#clipPath20)" fill="none" x1="608" x2="111" y1="90" y2="90" />
      <text x="193" y="88" clip-path="url(#clipPath21)" fill="black" stroke="none" xml:space="preserve">oeLogin("icrashadmin","7WXC1359")</text>
      <line clip-path="url(#clipPath22)" fill="none" x1="118" x2="111" y1="87" y2="90" />
      <line clip-path="url(#clipPath22)" fill="none" x1="111" x2="118" y1="90" y2="93" />
      <line clip-path="url(#clipPath20)" fill="none" x1="608" x2="111" y1="210" y2="210" />
      <text x="282" y="208" clip-path="url(#clipPath23)" fill="black" stroke="none" xml:space="preserve">oeSMS("456123")</text>
      <line clip-path="url(#clipPath24)" fill="none" x1="118" x2="111" y1="207" y2="210" />
      <line clip-path="url(#clipPath24)" fill="none" x1="111" x2="118" y1="210" y2="213" />
      <line clip-path="url(#clipPath20)" fill="none" x1="608" x2="111" y1="150" y2="150" stroke-dasharray="5,5" />
      <text x="24" y="148" clip-path="url(#clipPath25)" fill="black" stroke-dasharray="5,5" stroke="none" xml:space="preserve">ieMessage(You login and password are correct. Sms code has been sent)</text>
      <line clip-path="url(#clipPath26)" fill="none" x1="601" x2="608" y1="153" y2="150" />
      <line clip-path="url(#clipPath26)" fill="none" x1="608" x2="601" y1="150" y2="147" />
      <line clip-path="url(#clipPath20)" fill="none" x1="608" x2="111" y1="270" y2="270" stroke-dasharray="5,5" />
      <text x="160" y="268" clip-path="url(#clipPath27)" fill="black" stroke-dasharray="5,5" stroke="none" xml:space="preserve">ieMessage(You are logged in ! Wellcome ...)</text>
      <line clip-path="url(#clipPath28)" fill="none" x1="601" x2="608" y1="273" y2="270" />
      <line clip-path="url(#clipPath28)" fill="none" x1="608" x2="601" y1="270" y2="267" />
      <line clip-path="url(#clipPath20)" fill="none" x1="608" x2="111" y1="315" y2="315" />
      <text x="314" y="314" clip-path="url(#clipPath29)" fill="black" font-family="'Segoe UI'" stroke="none" xml:space="preserve">oeLogout()</text>
      <line clip-path="url(#clipPath30)" fill="none" x1="118" x2="111" y1="312" y2="315" />
      <line clip-path="url(#clipPath30)" fill="none" x1="111" x2="118" y1="315" y2="318" />
      <line clip-path="url(#clipPath20)" fill="none" x1="608" x2="111" y1="360" y2="360" stroke-dasharray="5,5" />
    </g>
    <g stroke-width="2.1" font-size="19" stroke-dasharray="5,5" font-family="'Segoe UI'" stroke-linecap="butt">
      <text xml:space="preserve" x="173" y="359" clip-path="url(#clipPath31)" stroke="none">ieMessage(You are logged out ! Good Bye ...)</text>
      <line clip-path="url(#clipPath32)" fill="none" x1="601" x2="608" y1="363" y2="360" stroke-dasharray="none" stroke="rgb(136,136,136)" />
      <line clip-path="url(#clipPath32)" fill="none" x1="608" x2="601" y1="360" y2="357" stroke-dasharray="none" stroke="rgb(136,136,136)" />
    </g>
  </g>
</svg>

